<?xml version="1.0" encoding="UTF-8"?>
<svg id="Layer_1" data-name="Layer 1" xmlns="http://www.w3.org/2000/svg" version="1.1" viewBox="0 0 2194 1331">
  <defs>
    <style>
      .cls-1 {
        isolation: isolate;
        opacity: .6;
      }

      .cls-1, .cls-2 {
        fill: none;
        stroke: #f6f6f6;
      }
    </style>
  </defs>
  <path class="cls-1" d="M2065.1,651c-146.7-63.3-263.6,105.3-376.6,268.3-70.9,102.3-151.2,218.3-213.9,230.1-9.1,1.7-21.7,2.2-39.2-9.3-79.2-52,59.4-364.1,151.1-570.5,114.7-258.3,183.1-421.1,144.9-509.4-10.8-25.1-30.1-43.5-55.5-53.1-120.8-45.4-258.9,163.3-512.7,567.2-109.2,173.7-222,353.3-325.1,483.9-141.1,178.8-201.5,184.8-220.9,179.2-90.3-26.5-76.7-147.6-45.6-329.3,29-169.4,61.8-361.4-108.9-393.7C170.7,459.1,10.5,877.6,3.8,895.4c-8.8,23.6,3.7,49.7,28,58.3,24.3,8.6,51.2-3.6,60-27.2,1.4-3.6,142-362.7,352.9-322.7,75.8,14.4,63.5,118.9,34.4,289.5-30.4,178-64.9,379.7,110.9,431.3,12.5,3.7,25.2,5.5,38,5.5,157.8,0,342-273.7,615.1-708.2,90.6-144.2,176.2-280.4,251.3-381.3,108.1-145.1,145-148.3,147.7-148.5,1.2.5,1.8.7,2.9,3.4,24.7,57.2-69.1,268.5-144.5,438.2-134.2,302.2-261,587.7-117.6,681.9,34.4,22.6,71.3,30.4,109.5,23.2,100.8-19,184.8-140.3,273.8-268.6,87.2-125.8,186.2-268.4,260.8-236,34.3,14.8,55.7,37.2,65.5,68.6,30.4,97-51.8,255.5-86.1,308.3-13.8,21.2-7.2,49.3,14.7,62.7,21.9,13.4,50.8,7.1,64.6-14.2,6-9.2,145.5-226.5,96.6-383.2-17.7-56.6-58.2-100-117.1-125.5Z"/>
  <g>
    <path class="cls-2" d="M1971.9,371.2c0-14.3,0-28.7,0-43,0-2-.2-1.7,1.7-1.8,6.4-.4,12.1-2.4,17.3-6.2,6-4.5,10.1-10.3,12.1-17.5,1.1-3.9,1.3-7.9.9-12-1.4-12.8-10.8-24.3-24.3-27.6-1.7-.4-3.5-.8-5.2-.8-.2,0-.5,0-.7,0-1.9-.2-1.7.1-1.7-1.9,0-28.7,0-57.4,0-86.1s0-.2,0-.3c0-1.5,0-1.5,1.5-1.4,4.3,0,8.6.3,13,.8,7.3.8,14.5,2.3,21.5,4.5,13.4,4.1,25.7,10.4,36.9,18.8,13.8,10.3,25,23.1,33.5,38.1,5.6,10,9.7,20.5,12.3,31.7,1,4.1,1.7,8.3,2.2,12.5.5,4.3.8,8.6.9,12.9,0,3.3,0,6.6-.2,9.9-.2,3.4-.6,6.8-1,10.1-1,7.3-2.7,14.4-5.1,21.4-4.7,14-11.8,26.8-21.2,38.3-11.4,13.9-25.2,24.7-41.3,32.6-9,4.4-18.4,7.5-28.2,9.6-4,.8-8,1.5-12.1,1.9-3.1.3-6.2.5-9.3.6-.9,0-1.8,0-2.7,0-.6,0-.8-.2-.8-.8,0-.4,0-.9,0-1.3,0-14.3,0-28.6,0-42.8Z"/>
    <path class="cls-2" d="M1850.1,371.2c0-14.1,0-28.3,0-42.4,0-.2,0-.4,0-.6,0-2-.2-1.7,1.7-1.8,6.5-.4,12.4-2.5,17.6-6.5,6.7-5.2,11-11.9,12.3-20.3,1.6-9.5-.7-18-6.7-25.5-4.9-6.1-11.3-9.9-18.9-11.4-1.7-.4-3.5-.4-5.3-.6-.7,0-.8-.1-.8-.8,0-.4,0-.8,0-1.2,0-28.6,0-57.1,0-85.7,0-2.2-.3-2,1.9-2,4.2,0,8.4.4,12.5.8,9.1,1.1,18,3.1,26.7,6.3,13,4.6,24.8,11.3,35.5,20,11.4,9.2,20.9,20.2,28.3,32.8,6.5,11,11.1,22.7,13.9,35.1,1,4.4,1.7,8.8,2.2,13.2.5,4.5.8,8.9.7,13.4,0,1.8,0,3.5,0,5.3-.1,3.2-.4,6.4-.8,9.6-.5,4.2-1.2,8.3-2.1,12.4-3.8,16.9-11,32.3-21.4,46.1-4,5.3-8.3,10.2-13.1,14.8-8.2,7.8-17.2,14.4-27.2,19.7-9.6,5.1-19.7,8.8-30.4,11.2-3.7.8-7.5,1.5-11.3,2-4,.5-8,.8-12.1.9-.8,0-1.6,0-2.4,0-.8,0-.9-.1-1-.9,0-.4,0-.8,0-1.2,0-14.3,0-28.6,0-42.8Z"/>
  </g>
  <path class="cls-2" d="M244.7,117.7c39.5,0,79.1,0,118.6,0,.6,0,1.3,0,1.9,0,3.5.2,5.7,3,5.6,5.8,0,.4,0,.9,0,1.3,0,76.7,0,153.4,0,230,0,.4,0,.9,0,1.3,0,2.7-2.1,5.1-4.8,5.5-2.1.4-4-.2-5.6-1.7-3.2-3-6.5-5.9-9.7-8.8-23.6-21.5-47.3-42.9-70.9-64.4-10.1-9.2-20.2-18.3-30.3-27.5-.3-.3-.6-.6-1-.8-2.3-1.8-5.5-1.8-7.8,0-.3.2-.6.5-.8.7-24.5,22.2-49,44.5-73.5,66.7-12.4,11.2-24.8,22.4-37.1,33.7-1.7,1.5-3.5,2.3-5.8,2-2.8-.4-5-2.8-4.9-5.6,0-.4,0-.7,0-1.1,0-76.8,0-153.6,0-230.4,0-.4,0-.7,0-1.1,0-3.1,2.3-5.6,5.5-5.8.6,0,1.3,0,1.9,0,39.6,0,79.2,0,118.8,0Z"/>
  <path class="cls-2" d="M77.7,1222.5c0-.6,0-1.1,0-1.7,0-10.2.8-20.4,2-30.5,2-15.7,5.4-31,10.3-46,4-12.5,9-24.6,14.9-36.3,5.9-11.8,12.7-23,20.4-33.7,8-11.2,16.9-21.8,26.7-31.6,9.2-9.2,19-17.7,29.5-25.5,10.6-7.8,21.7-14.8,33.4-21,11.8-6.2,24-11.4,36.7-15.7,11.7-4,23.7-7.1,35.8-9.3,13.4-2.5,27-3.7,40.6-4.1,1.7,0,3.4,0,5.1,0,0,.4.2.7.2,1,0,.5,0,1.1,0,1.6,0,83.5,0,167.1,0,250.6,0,.7,0,1.5,0,2.3-.4.1-.7.2-1.1.3-.4,0-.8,0-1.3,0-83.6,0-167.3,0-250.9,0-.7,0-1.5.1-2.3-.3Z"/>
  <path class="cls-2" d="M859.9,605.8c-20.9,0-41.9,0-62.8,0-2.3,0-2.1.2-2.1-2,0-40.2,0-80.3,0-120.5,0-2.9.1-5.9.4-8.8.7-9.1,2.4-18,5.1-26.7,2-6.5,4.6-12.9,7.6-19,3.8-7.5,8.3-14.6,13.6-21.1,3-3.8,6.2-7.3,9.6-10.7,7.6-7.4,15.9-13.8,25.2-19.1,7-4,14.4-7.3,22.1-9.9,5.9-1.9,11.8-3.5,17.9-4.5,3.2-.5,6.5-.9,9.8-1.3,4.9-.5,9.9-.6,14.8-.4,3.3.1,6.7.4,10,.8,5.6.6,11.1,1.7,16.5,3,6.6,1.7,13,4,19.3,6.7,6.6,3,12.9,6.5,18.9,10.6,4.4,3,8.6,6.3,12.5,9.8,3.9,3.5,7.6,7.2,11.1,11.2,5.2,6.1,9.9,12.6,13.8,19.5,4.2,7.5,7.7,15.3,10.3,23.4,1.6,5.2,2.9,10.4,3.8,15.7.5,2.9.9,5.9,1.2,8.9.7,6.4.7,12.7.5,19.1-.1,2.8-.4,5.5-.8,8.3-.7,5.9-1.9,11.8-3.5,17.5-1.6,6-3.7,11.7-6.3,17.4-3,6.6-6.5,12.9-10.6,18.9-3.7,5.4-7.8,10.4-12.3,15.2-6.9,7.2-14.5,13.5-22.9,18.9-11.1,7.1-23,12.2-35.8,15.4-3.7.9-7.5,1.7-11.3,2.3-3.2.5-6.4.8-9.6,1.1-3.9.3-7.8.3-11.7.3-18.2,0-36.3,0-54.5,0Z"/>
  <path class="cls-2" d="M1833.1,1116.9c39.5,0,79.1,0,118.6,0,.6,0,1.3,0,1.9,0,3.5.2,5.7,3,5.6,5.8,0,.4,0,.9,0,1.3,0,76.7,0,153.4,0,230,0,.4,0,.9,0,1.3,0,2.7-2.1,5.1-4.8,5.5-2.1.4-4-.2-5.6-1.7-3.2-3-6.5-5.9-9.7-8.8-23.6-21.5-47.3-42.9-70.9-64.4-10.1-9.2-20.2-18.3-30.3-27.5-.3-.3-.6-.6-1-.8-2.3-1.8-5.5-1.8-7.8,0-.3.2-.6.5-.8.7-24.5,22.2-49,44.5-73.5,66.7-12.4,11.2-24.8,22.4-37.1,33.7-1.7,1.5-3.5,2.3-5.8,2-2.8-.4-5-2.8-4.9-5.6,0-.4,0-.7,0-1.1,0-76.8,0-153.6,0-230.4,0-.4,0-.7,0-1.1,0-3.1,2.3-5.6,5.5-5.8.6,0,1.3,0,1.9,0,39.6,0,79.2,0,118.8,0Z"/>
</svg>