<?xml version="1.0" encoding="UTF-8"?>
<svg id="Layer_1" data-name="Layer 1" xmlns="http://www.w3.org/2000/svg" version="1.1" viewBox="0 0 55 55">
  <defs>
    <style>
      .cls-1 {
        fill: #fed309;
      }

      .cls-1, .cls-2, .cls-3, .cls-4, .cls-5, .cls-6, .cls-7, .cls-8 {
        stroke-width: 0px;
      }

      .cls-2 {
        fill: none;
      }

      .cls-3 {
        fill: #f04a37;
      }

      .cls-4 {
        fill: #010101;
      }

      .cls-5 {
        fill: #212629;
      }

      .cls-6 {
        fill: #fff;
      }

      .cls-7 {
        fill: #06ab7a;
      }

      .cls-8 {
        fill: #566db4;
      }
    </style>
  </defs>
  <rect class="cls-2" width="55" height="55"/>
  <g>
    <rect class="cls-5" x="11.8" y=".5" width="19.1" height="19.1"/>
    <rect class="cls-8" x="11.6" y="19.6" width="19.1" height="19.1" rx="9.5" ry="9.5"/>
    <rect class="cls-1" x="30.9" y="19.6" width="19.1" height="19.1"/>
    <path class="cls-7" d="M17,4.8c1.7-.3,3.4-.6,5-.8.8-.1,1.5,0,2.1,0,.6.2,1.1.5,1.5.9.4.4.7.9,1,1.5.2.6.4,1.2.4,1.9,0,.7,0,1.4-.2,2.1-.2.7-.5,1.4-.8,2.1-.4.7-.9,1.3-1.5,1.8-.6.6-1.3,1-2.1,1.4-.3.1-.7.2-1.1.2-.4,0-.9,0-1.6,0-.6,0-1.5,0-2.4-.2l-.2-11ZM20.6,12.6c.5-.1,1-.3,1.3-.6.3-.2.6-.5.8-.8.2-.3.3-.5.4-.8,0-.3.1-.5.1-.6v-.3s0-.1,0-.3c0-.2,0-.4-.2-.6,0-.2-.2-.4-.4-.6-.2-.1-.4-.2-.7-.2-.3,0-.6.2-1.1.5v4Z"/>
    <rect class="cls-3" x="31" y=".5" width="19.1" height="19.1" rx="9.5" ry="9.5"/>
    <path class="cls-6" d="M34.2,6.7l3.2-1.4,1.2,3.9,2.1-3.3,1.8,3.1,1.4-4.2,2.7,1.9-2.9,8.7-2.9-3-3,3.8-3.6-9.5Z"/>
    <path class="cls-4" d="M21.2,28c.4,0,.4-.6,0-.6s-.4.6,0,.6h0Z"/>
    <path class="cls-4" d="M25.3,28.3c.4,0,.4-.6,0-.6s-.4.6,0,.6h0Z"/>
    <path class="cls-4" d="M21.3,29.6c.5.6,1.2.9,1.9.9s1.5-.5,2.1-1,0-.2-.1-.1c-.6.5-1.2,1-1.9,1s-1.3-.3-1.8-.9-.2,0-.1.1h0Z"/>
    <path class="cls-8" d="M15.1,37.6v.3c0,0,.1.2.1.2h.3s.2-.2.2-.2v.2c0,0,0,.2,0,.2v.2c0,0,.2,0,.2,0h.2c0,0,.2-.1.2-.1v-.2c0,0,.2.2.2.2v.2c.1,0,.3,0,.3,0h.2c0-.1.2-.3.2-.3v-.2c0,0,.1-.2.1-.2h0c0,0,.3,0,.3,0s.1,0,.1,0v-.2c.1,0,.1-.2.1-.2s-.1-.2-.1-.2v-.2c0,0-.3-.2-.3-.2s-.1-.2-.1-.2,0-.2,0-.2,0-.2,0-.2,0-.2,0-.3,0-.4,0-.4c0,0,0-.2,0-.3s0-.3,0-.4,0-.3,0-.3c0,0,0-.3,0-.3s0-.2,0-.2h-1.7c0,0,0,.4,0,.4v2.4c0,0-.4.6-.4.6"/>
    <g>
      <path class="cls-4" d="M16,37.2c0,.2-.2.4-.3.6s-.2.2-.3.2-.1-.2-.1-.3c0-.2.2-.3.2-.5s0-.4.1-.6c0-.9,0-1.9,0-2.8s-.2-.1-.2,0v1.8c0,.6,0,1.2-.2,1.7s-.3.8.2.9.7-.5.9-.8-.1-.2-.2-.1h0Z"/>
      <path class="cls-4" d="M16.5,37.5c0,.3-.1.5-.3.8s-.2.2-.3.1-.1-.2-.2-.3-.2,0-.2,0,.1.4.3.5.4,0,.5,0c.3-.3.4-.6.4-1s0-.1-.1-.1-.1,0-.1.1h0Z"/>
      <path class="cls-4" d="M16.4,38.1c0,.2.1.6.4.5s.2-.1.3-.2.1-.2.2-.3,0-.3,0-.4-.2-.1-.2,0,0,0,0,.2,0,.1,0,.2c0,.1-.1.2-.2.3s0,0,0,0c0,0,0,0,0,0,0,0,0,0,0,0,0,0,0,0,0,0s0,0,0,0c0,0,0,0,0,0,0,0,0,0,0,0s0,0,0,0,0,0,0,0c0,0,0,0,0,0,0,0,0-.1-.1-.1s-.1,0-.1.1h0Z"/>
      <path class="cls-4" d="M16.9,37.4c.2.1.2.3.3.5s.3.1.4,0c.3-.2.2-.7,0-.9s-.3-.3-.4-.5,0-.5,0-.8c0-.5,0-1,0-1.5s-.2-.1-.2,0c0,.4,0,.8,0,1.2s0,.8,0,1.1.4.5.5.9,0,.2,0,.3c0,.2-.2.1-.3,0s-.1-.3-.2-.4-.3,0-.1.1h0Z"/>
    </g>
    <g>
      <path class="cls-4" d="M29.8,33.2c-.6-.8-1.5-1-2.4-1s-.3,0-.5,0-.3-.2-.4-.3-.3-.2-.5-.2-.3.1-.3.3c0,.2,0,.4.2.6v-.2c-.2,0-.5.2-.8.3s-.4.2-.4.4c0,.4.4.6.7.3s0-.2-.1-.1c-.2.1-.3,0-.3-.2,0,0,0-.1.2-.2,0,0,.2,0,.2-.1.2-.1.4-.2.7-.2s0-.1,0-.2c0-.1-.4-.5,0-.5s.2.1.3.2c.1.1.2.2.4.3.3.1.7,0,1,0,.7,0,1.4.3,1.8.9s.2,0,.1-.1h0Z"/>
      <path class="cls-4" d="M25.8,33c-.3,0-.5.3-.7.5s-.1.3,0,.4.2.2.3.2.3-.1.4-.2,0,0,0-.1,0,0-.1,0c0,0-.2,0-.2.1s0,0-.2,0c0,0,0,0,0,0,0,0,0,0,0,0s0,0,0,0c0,0,0,0,0-.1,0-.1.2-.2.3-.3s.2-.2.4-.2,0,0,0-.1,0,0-.1,0h0Z"/>
      <path class="cls-4" d="M25.9,33.6c-.3.2-.5.5-.3.9s.3.2.4.2.4-.2.5-.3.3-.3.5-.4.5,0,.6.1c.3.2.6.6.8.9s.3,0,.2-.1c-.2-.3-.4-.6-.7-.8s-.6-.4-.9-.3-.6.4-.9.6-.2.2-.4,0-.1-.1-.1-.2c0-.2.2-.3.3-.5s0-.2-.1-.1h0Z"/>
    </g>
    <g>
      <path class="cls-4" d="M43.9,32.1c-.3.8-.8,1.5-1.4,2s-.7.5-1.1.6-.8.2-1,.5-.1.5.1.7c.4.2.7-.3,1.1-.3s.3,0,.5,0c.2.2.1.4-.1.5s-.4-.1-.7,0-.7.4-.8.7,0,.7.4.7.7-.4.9-.8-.1-.2-.2-.1c0,.2-.2.4-.4.5-.3.2-.8,0-.6-.4s.3-.4.5-.5.4,0,.6,0c.6,0,.6-.8,0-1s-.6,0-.9.2-.2.2-.3.2-.2-.1-.2-.2,0-.1,0-.2c.2-.2.4-.2.6-.3.6-.2,1.2-.6,1.7-1s1-1.2,1.2-1.9-.2-.2-.2,0h0Z"/>
      <path class="cls-4" d="M42.2,36.7c0,.2-.2.4-.4.6s-.2.2-.3.2-.2,0-.2,0,0,0-.1,0,0,0,0,.1c0,.1.2.2.3.3s.3,0,.5-.2c.3-.2.5-.5.6-.8s0-.1,0-.1-.1,0-.1,0h0Z"/>
      <path class="cls-4" d="M41.9,37.4c.1.4.7.2.9,0,.4-.3.6-.8.8-1.2.5-1,1.2-1.9,2-2.7s0-.2-.1-.1c-.6.6-1.2,1.4-1.7,2.1s-.4.8-.6,1.2-.2.4-.3.5-.6.5-.7.2-.2,0-.2,0h0Z"/>
      <path class="cls-4" d="M40.7,35c-1.1-.5-2.3-1-3-2.1s-.3,0-.2.1c.7,1.1,2,1.6,3.1,2.2s.2-.1.1-.2h0Z"/>
      <path class="cls-4" d="M41.4,37.6c-1,.3-1.8-.6-2.4-1.2s-1.4-1.2-2.2-1.7-.2.1-.1.2c.9.5,1.7,1.2,2.5,2s1.4,1.3,2.4,1,0-.2,0-.2h0Z"/>
    </g>
    <path class="cls-4" d="M37.7,29.3c.6.9,1.9,1.1,2.9,1s2.1-.7,2.8-1.5,0-.2-.1-.1c-.6.8-1.5,1.3-2.5,1.5s-2.3,0-2.9-.9-.3,0-.2.1h0Z"/>
    <path class="cls-4" d="M38.3,28.2c.3,0,.3-.5,0-.5s-.3.5,0,.5h0Z"/>
    <path class="cls-4" d="M42.3,27.9c.4,0,.4-.6,0-.6s-.4.6,0,.6h0Z"/>
    <g>
      <path class="cls-8" d="M21.2,43.6h-1s.5-1.4.5-1.4c.2,0,.4.1.5.3.3.4,0,1,0,1.1Z"/>
      <path class="cls-8" d="M24.3,43.7h-2.8c0-.2.3-.9,0-1.3-.1-.2-.3-.3-.6-.3l.7-3.6h2.3c0,0-.7,3.7-.7,3.7,1.8-.2,1.1,1.6,1.1,1.6Z"/>
      <path class="cls-8" d="M21.2,43.6h-1s-2.8,0-2.8,0l1.4-5.4,2.1.2-.8,3.8h0c.2,0,.4,0,.5,0,.2,0,.4.1.5.3.3.4,0,1,0,1.1Z"/>
    </g>
    <g>
      <path class="cls-1" d="M44.5,43.7h-2.8c0-.2.3-1.1,0-1.6-.1-.2-.3-.3-.6-.3v-3.3s2.2,0,2.2,0v3.3c1.8-.2,1.2,1.8,1.2,1.8Z"/>
      <path class="cls-1" d="M41.4,43.7h-1s-2.5,0-2.5,0l.2-5.1h2.3c0,0,0,3.5,0,3.5h0c.2,0,.4,0,.5,0,.2,0,.4.1.5.3.3.4,0,1.2,0,1.4Z"/>
    </g>
    <g>
      <path class="cls-5" d="M14.8,46l1.9,2,1.8-2,2.2,1.7-2.3,2.4,2.4,2.4-1.9,2-2.2-2.8-1.8,2.9-2.3-1.9,2.3-2.5-2.3-2.6,2.2-1.7Z"/>
      <path class="cls-5" d="M23.5,46l1.9,2,1.8-2,2.2,1.7-2.3,2.4,2.4,2.4-1.9,2-2.2-2.8-1.8,2.9-2.3-1.9,2.3-2.5-2.3-2.6,2.2-1.7Z"/>
      <path class="cls-3" d="M32.5,46l1.5,3.5,1.7-3.4,2.5,1.4-4.3,7.5-4.1-7.3,2.8-1.7Z"/>
      <path class="cls-3" d="M41.7,46.2l-.4,8-2.6.3v-7.9c0,0,3-.3,3-.3Z"/>
      <path class="cls-1" d="M46.2,46.2l-.4,8-2.6.3v-7.9c0,0,3-.3,3-.3Z"/>
      <path class="cls-1" d="M50.7,46.2l-.4,8-2.6.3v-7.9c0,0,3-.3,3-.3Z"/>
    </g>
  </g>
</svg>