<svg width="512" height="512" viewBox="0 0 512 512" fill="none" xmlns="http://www.w3.org/2000/svg">
<g clip-path="url(#clip0_2_13967)">
<path fill-rule="evenodd" clip-rule="evenodd" d="M361.654 134.64C353.616 118.865 334.362 112.577 318.643 120.586C302.924 128.595 296.69 147.87 304.728 163.646C312.761 179.413 332.024 185.707 347.743 177.697C363.462 169.688 369.688 150.407 361.654 134.64ZM143.171 369.285C151.205 385.053 172.285 390.421 190.251 381.267C208.217 372.112 216.264 351.903 208.23 336.136C200.192 320.361 179.117 315.001 161.151 324.155C143.185 333.309 135.133 353.51 143.171 369.285ZM322.672 367.093C297.742 379.795 287.879 410.38 300.635 435.415C302.125 438.339 303.877 441.041 305.815 443.539C297.583 445.124 289.315 446.168 281.053 446.646C281.194 441.266 280.156 435.989 278.088 431.161C278.094 431.13 278.092 431.137 278.103 431.104C272.221 417.625 270.984 402.064 275.847 387C281.303 370.086 293.327 357.196 308.161 350.12L308.138 350.076C320.836 344.871 331.247 334.323 335.802 320.205C344.036 294.691 330.056 267.253 304.572 258.914C293.875 255.413 282.86 255.851 273.067 259.413C269.952 260.545 266.962 261.994 264.144 263.732L264.124 263.693C261.407 265.167 258.583 266.441 255.675 267.5C243.121 272.073 229.01 272.65 215.295 268.162C200.248 263.237 188.386 253.09 180.934 240.411C180.908 240.402 180.915 240.404 180.886 240.391C176.48 233.017 169.526 227.121 160.743 224.247C152.637 221.594 144.283 221.918 136.858 224.618C126.616 228.344 118.143 236.594 114.53 247.794C108.294 267.114 118.881 287.892 138.176 294.202C146.961 297.081 156.026 296.424 163.892 293.072C163.922 293.079 163.911 293.079 163.944 293.079C164.08 293.024 164.215 292.972 164.351 292.92C164.48 292.871 164.61 292.822 164.739 292.774C164.784 292.757 164.829 292.74 164.874 292.723C164.964 292.689 165.054 292.655 165.144 292.621C178.298 287.21 193.331 286.193 207.931 290.967C208.332 291.102 208.697 291.283 209.093 291.42C221.791 295.38 233.343 303.015 241.996 313.807C244.881 317.404 247.447 321.339 249.623 325.609C250.256 326.852 250.763 328.126 251.318 329.386C258.934 346.846 258.724 365.919 251.982 382.449C247.835 393.399 240.889 402.503 232.216 409.253C231.722 409.664 231.206 410.052 230.703 410.445C230.328 410.713 229.959 410.983 229.583 411.24C228.219 412.253 226.844 413.244 225.392 414.158C224.722 414.576 224.011 414.944 223.325 415.343C217.008 419.755 212.001 426.163 209.447 434.08C209.145 435.027 208.911 435.979 208.687 436.93C162.592 421.429 122.242 388.522 98.3695 341.67C56.1544 258.818 79.4327 159.876 149.064 104.222C149.729 108.693 151.079 113.138 153.248 117.395C163.963 138.425 189.63 146.825 210.576 136.152C231.518 125.482 239.805 99.7822 229.089 78.7521C227.06 74.7685 224.495 71.2434 221.529 68.213C229.952 66.0718 238.439 64.4945 246.944 63.5315C247.421 66.6158 248.272 69.6238 249.489 72.4727C249.481 72.4989 249.483 72.4924 249.479 72.5273C255.354 86.0043 256.592 101.565 251.733 116.627C246.277 133.541 234.255 146.435 219.421 153.512L219.439 153.546C206.742 158.763 196.332 169.303 191.773 183.424C183.543 208.936 197.526 236.378 223.003 244.716C233.7 248.213 244.709 247.778 254.501 244.217C257.618 243.083 260.612 241.632 263.434 239.891L263.454 239.93C266.165 238.459 268.984 237.188 271.887 236.131C284.447 231.556 298.566 230.98 312.287 235.47C327.327 240.392 339.189 250.539 346.641 263.219C346.669 263.231 346.663 263.229 346.689 263.238C351.097 270.617 358.047 276.504 366.836 279.38C374.943 282.033 383.297 281.709 390.721 279.009C400.963 275.283 409.435 267.034 413.045 255.835C419.281 236.516 408.697 215.742 389.399 209.427C380.621 206.55 371.554 207.203 363.686 210.561C363.66 210.552 363.666 210.555 363.629 210.546C363.577 210.567 363.525 210.587 363.474 210.608C363.362 210.652 363.249 210.696 363.137 210.74C362.967 210.806 362.796 210.871 362.625 210.936C362.561 210.96 362.496 210.984 362.432 211.009C349.282 216.417 334.251 217.438 319.646 212.655C319.245 212.531 318.879 212.346 318.488 212.211C305.791 208.251 294.239 200.616 285.583 189.82C282.701 186.227 280.128 182.29 277.952 178.02C277.319 176.777 276.812 175.504 276.264 174.245C268.641 156.783 268.851 137.71 275.6 121.183C279.747 110.233 286.688 101.131 295.359 94.3759C295.856 93.9699 296.371 93.5813 296.878 93.1861C297.247 92.916 297.617 92.6458 297.99 92.3844C299.356 91.3763 300.738 90.3878 302.19 89.4729C302.853 89.0529 303.565 88.6848 304.25 88.2865C310.572 83.8723 315.578 77.4638 318.128 69.5491C318.193 69.3461 318.233 69.1454 318.29 68.9468C369.058 82.6251 414.122 116.988 439.929 167.637C480.968 248.182 460.081 343.903 394.923 400.304C394.004 396.608 392.701 392.96 390.899 389.424C378.143 364.388 347.598 354.392 322.672 367.093Z" fill="white"/>
<path d="M72.6123 351.035C96.4844 397.887 136.835 430.794 182.93 446.295L208.66 436.93C162.565 421.429 122.215 388.522 98.3424 341.67L72.6123 351.035Z" fill="white"/>
<path d="M117.435 378.65C109.397 362.874 117.448 342.674 135.414 333.52L161.145 324.155C143.179 333.309 135.127 353.509 143.165 369.285L117.435 378.65Z" fill="white"/>
<path d="M112.434 303.567C93.1385 297.256 82.5515 276.478 88.7875 257.158L114.518 247.793C108.282 267.113 118.869 287.891 138.164 294.202L112.434 303.567Z" fill="white"/>
<path d="M117.425 378.65C125.459 394.417 146.538 399.785 164.504 390.631L180.689 384.74C183.908 384.005 187.118 382.854 190.234 381.266L180.689 384.74C165.349 388.245 149.795 382.317 143.155 369.285L117.425 378.65Z" fill="white"/>
<path d="M88.8045 257.158C92.4174 245.958 100.89 237.708 111.133 233.982L136.85 224.622C126.614 228.35 118.146 236.598 114.535 247.793L88.8045 257.158Z" fill="white"/>
<path d="M123.325 113.587C53.6931 169.241 30.4147 268.183 72.6299 351.035L98.3601 341.67C56.1449 258.818 79.4233 159.876 149.055 104.222L123.325 113.587Z" fill="white"/>
<path d="M112.433 303.567C121.218 306.446 130.283 305.789 138.149 302.437L160.135 294.435C161.408 294.048 162.658 293.593 163.879 293.072L160.135 294.435C153.206 296.543 145.585 296.634 138.163 294.202L112.433 303.567Z" fill="white"/>
<path d="M182.963 446.295C183.186 445.343 183.421 444.392 183.723 443.445L209.453 434.08C209.151 435.027 208.917 435.978 208.693 436.93L182.963 446.295Z" fill="white"/>
<path d="M138.176 302.444C138.143 302.444 138.154 302.444 138.124 302.437L163.854 293.072C163.885 293.079 163.874 293.079 163.906 293.079L138.176 302.444Z" fill="white"/>
<path d="M138.61 302.285C138.474 302.336 138.339 302.389 138.203 302.443L163.933 293.078C164.069 293.024 164.205 292.971 164.34 292.92L138.61 302.285Z" fill="white"/>
<path d="M138.97 302.158C138.857 302.2 138.744 302.242 138.631 302.285L164.362 292.92C164.491 292.871 164.621 292.822 164.75 292.774L139.02 302.139L138.97 302.158Z" fill="white"/>
<path d="M139.121 302.088L138.987 302.139L164.717 292.774L164.852 292.723L139.121 302.088Z" fill="white"/>
<path d="M139.403 301.985C139.313 302.02 139.223 302.054 139.133 302.088L164.863 292.723C164.953 292.689 165.043 292.655 165.133 292.62L139.403 301.985Z" fill="white"/>
<path d="M183.701 443.445C186.254 435.528 191.261 429.119 197.578 424.707L223.309 415.342C216.991 419.754 211.985 426.163 209.431 434.08L183.701 443.445Z" fill="white"/>
<path d="M144.944 330.045C160.282 326.54 175.83 332.464 182.473 345.502L208.203 336.137C200.165 320.361 179.09 315.001 161.124 324.155L144.944 330.045C141.723 330.78 138.512 331.932 135.394 333.52L144.944 330.045Z" fill="white"/>
<path d="M111.096 233.983C118.52 231.282 126.874 230.959 134.981 233.612L160.711 224.246C152.604 221.594 144.25 221.917 136.826 224.618L111.096 233.983Z" fill="white"/>
<path d="M182.5 345.5C190.534 361.268 182.486 381.477 164.52 390.631L190.25 381.266C208.216 372.111 216.264 351.902 208.23 336.135L182.5 345.5Z" fill="white"/>
<path d="M197.582 424.707C198.267 424.309 198.979 423.941 199.649 423.523L225.379 414.158C224.709 414.576 223.998 414.944 223.312 415.342L197.582 424.707Z" fill="white"/>
<path d="M199.622 423.523C201.074 422.608 202.449 421.617 203.813 420.605L229.543 411.24C228.179 412.252 226.804 413.243 225.352 414.158L199.622 423.523Z" fill="white"/>
<path d="M144.306 300.202C142.647 300.729 141.012 301.324 139.404 301.986L144.306 300.202C156.226 296.413 169.376 296.141 182.192 300.332L207.922 290.967C193.322 286.193 178.288 287.21 165.135 292.621L144.306 300.202Z" fill="white"/>
<path d="M203.845 420.605C204.22 420.348 204.589 420.078 204.965 419.81L230.695 410.445C230.32 410.713 229.951 410.983 229.575 411.24L203.845 420.605Z" fill="white"/>
<path d="M204.961 419.81C205.463 419.417 205.979 419.029 206.473 418.618L232.203 409.253C231.709 409.664 231.193 410.052 230.691 410.445L204.961 419.81Z" fill="white"/>
<path d="M134.979 233.612C143.761 236.486 150.715 242.382 155.121 249.756L180.852 240.391C176.446 233.017 169.491 227.121 160.709 224.247L134.979 233.612Z" fill="white"/>
<path d="M155.152 249.756C155.18 249.769 155.173 249.766 155.2 249.775L180.93 240.41C180.904 240.401 180.91 240.404 180.882 240.391L155.152 249.756Z" fill="white"/>
<path d="M206.492 418.618C215.165 411.868 222.111 402.764 226.258 391.814L251.988 382.448C247.841 393.399 240.896 402.503 232.222 409.253L206.492 418.618Z" fill="white"/>
<path d="M183.367 300.785C182.971 300.648 182.606 300.467 182.205 300.332L207.935 290.967C208.336 291.102 208.701 291.283 209.098 291.42L183.367 300.785Z" fill="white"/>
<path d="M155.19 249.776C162.642 262.455 174.504 272.602 189.551 277.527L215.281 268.162C200.234 263.237 188.372 253.09 180.92 240.411L155.19 249.776Z" fill="white"/>
<path d="M127.492 126.761C125.323 122.503 123.974 118.058 123.309 113.587L149.039 104.222C149.704 108.693 151.053 113.138 153.223 117.396L127.492 126.761Z" fill="white"/>
<path d="M216.239 323.172C207.585 312.38 196.033 304.745 183.336 300.785L209.066 291.42C221.763 295.38 233.315 303.015 241.969 313.807L216.239 323.172Z" fill="white"/>
<path d="M252.34 440.526C254.408 445.355 255.445 450.632 255.304 456.012L281.034 446.647C281.175 441.267 280.138 435.99 278.07 431.161L252.34 440.526Z" fill="white"/>
<path d="M252.352 440.469C252.341 440.501 252.343 440.495 252.337 440.525L278.067 431.16C278.074 431.13 278.071 431.136 278.082 431.104L252.352 440.469Z" fill="white"/>
<path d="M226.212 391.813C232.954 375.284 233.164 356.211 225.548 338.751L251.279 329.386C258.894 346.846 258.685 365.919 251.942 382.448L226.212 391.813Z" fill="white"/>
<path d="M250.096 396.365C245.233 411.428 246.47 426.989 252.352 440.469L278.082 431.103C272.2 417.624 270.963 402.063 275.826 387L250.096 396.365Z" fill="white"/>
<path d="M223.852 334.974C221.676 330.704 219.11 326.769 216.225 323.172L241.956 313.807C244.84 317.404 247.406 321.339 249.582 325.609L223.852 334.974Z" fill="white"/>
<path d="M197.27 254.08C171.793 245.743 157.81 218.301 166.04 192.789L191.77 183.424C183.54 208.936 197.523 236.378 223 244.715L197.27 254.08Z" fill="white"/>
<path d="M225.567 338.751C225.012 337.49 224.504 336.217 223.871 334.974L249.602 325.609C250.235 326.852 250.742 328.125 251.297 329.386L225.567 338.751Z" fill="white"/>
<path d="M255.3 456.011C263.562 455.533 271.83 454.488 280.063 452.904L305.793 443.539C297.561 445.123 289.293 446.168 281.03 446.646L255.3 456.011Z" fill="white"/>
<path d="M127.496 126.76C138.212 147.79 163.879 156.189 184.825 145.517L200.768 139.714C204.093 138.95 207.378 137.77 210.555 136.152L200.768 139.714C182.167 143.986 162.317 135.235 153.226 117.395L127.496 126.76Z" fill="white"/>
<path d="M189.53 277.527C203.245 282.015 217.356 281.438 229.91 276.865L255.612 267.51C243.065 272.074 228.965 272.646 215.261 268.162L189.53 277.527Z" fill="white"/>
<path d="M280.063 452.904C278.125 450.405 276.372 447.703 274.883 444.78L300.613 435.415C302.102 438.338 303.855 441.04 305.793 443.539L280.063 452.904Z" fill="white"/>
<path d="M166.026 192.789C170.585 178.669 180.994 168.128 193.692 162.912L219.422 153.547C206.725 158.763 196.315 169.304 191.756 183.424L166.026 192.789Z" fill="white"/>
<path d="M228.735 253.582C218.944 257.143 207.934 257.578 197.237 254.08L222.967 244.715C233.664 248.213 244.674 247.778 254.465 244.217L228.735 253.582Z" fill="white"/>
<path d="M282.414 359.484C267.581 366.561 255.557 379.451 250.1 396.365L275.83 387C281.287 370.086 293.311 357.196 308.145 350.119L282.414 359.484Z" fill="white"/>
<path d="M229.923 276.865C232.831 275.805 235.655 274.532 238.371 273.057L264.102 263.692C261.385 265.167 258.561 266.44 255.653 267.5L229.923 276.865Z" fill="white"/>
<path d="M193.692 162.911L193.674 162.876L219.404 153.511L219.422 153.545L193.692 162.911Z" fill="white"/>
<path d="M274.87 444.78C262.114 419.745 271.976 389.16 296.907 376.457L322.637 367.092C297.707 379.795 287.844 410.38 300.6 435.415L274.87 444.78Z" fill="white"/>
<path d="M238.379 273.057L238.399 273.096L264.129 263.731L264.109 263.692L238.379 273.057Z" fill="white"/>
<path d="M237.68 249.256C234.866 250.993 231.88 252.44 228.77 253.573L254.477 244.217C257.595 243.083 260.589 241.632 263.41 239.891L237.68 249.256Z" fill="white"/>
<path d="M238.394 273.097C241.212 271.358 244.202 269.91 247.317 268.777L273.023 259.421C269.917 260.552 266.935 261.998 264.124 263.732L238.394 273.097Z" fill="white"/>
<path d="M237.68 249.295L237.66 249.256L263.39 239.891L263.41 239.93L237.68 249.295Z" fill="white"/>
<path d="M203.346 88.117C214.062 109.147 205.775 134.847 184.833 145.517L210.563 136.152C231.505 125.482 239.792 99.782 229.077 78.752L203.346 88.117Z" fill="white"/>
<path d="M282.392 359.441L282.414 359.485L308.145 350.12L308.122 350.076L282.392 359.441Z" fill="white"/>
<path d="M246.141 245.496C243.239 246.553 240.419 247.824 237.708 249.295L263.438 239.93C266.15 238.459 268.969 237.188 271.871 236.131L246.141 245.496Z" fill="white"/>
<path d="M193.688 162.876C208.522 155.799 220.544 142.905 226 125.99L251.73 116.625C246.274 133.54 234.252 146.434 219.419 153.51L193.688 162.876Z" fill="white"/>
<path d="M247.327 268.777C257.12 265.215 268.135 264.777 278.832 268.278L304.562 258.913C293.865 255.412 282.851 255.85 273.057 259.412L247.327 268.777Z" fill="white"/>
<path d="M195.768 77.5773C198.734 80.6077 201.299 84.1328 203.328 88.1164L229.059 78.7514C227.029 74.7678 224.464 71.2427 221.498 68.2123L195.768 77.5773Z" fill="white"/>
<path d="M310.071 329.571C305.516 343.689 295.105 354.236 282.407 359.441L308.137 350.076C320.835 344.871 331.246 334.324 335.801 320.206L310.071 329.571Z" fill="white"/>
<path d="M286.528 244.835C272.817 240.348 258.709 240.921 246.156 245.486L271.858 236.131C284.418 231.556 298.537 230.98 312.258 235.47L286.528 244.835Z" fill="white"/>
<path d="M221.196 72.8965C212.69 73.8596 204.203 75.4369 195.78 77.5781L221.511 68.213C229.933 66.0718 238.42 64.4945 246.926 63.5315L221.196 72.8965Z" fill="white"/>
<path d="M250.511 183.611C251.059 184.869 251.566 186.143 252.2 187.385L277.93 178.02C277.297 176.778 276.789 175.504 276.241 174.246L250.511 183.611Z" fill="white"/>
<path d="M278.83 268.278C304.314 276.618 318.294 304.056 310.06 329.57L335.79 320.205C344.024 294.691 330.044 267.253 304.56 258.913L278.83 268.278Z" fill="white"/>
<path d="M252.213 187.384C254.389 191.654 256.962 195.591 259.844 199.184L285.574 189.819C282.692 186.226 280.119 182.289 277.943 178.019L252.213 187.384Z" fill="white"/>
<path d="M225.989 125.992C230.847 110.93 229.61 95.3693 223.735 81.8922L249.465 72.5272C255.34 86.0043 256.577 101.565 251.719 116.626L225.989 125.992Z" fill="white"/>
<path d="M308.572 372.219C330.706 367.135 354.331 377.55 365.153 398.789L390.883 389.424C378.127 364.388 347.581 354.392 322.656 367.092L308.572 372.219C304.615 373.127 300.705 374.531 296.925 376.457L308.572 372.219Z" fill="white"/>
<path d="M249.876 130.547C243.127 147.075 242.917 166.148 250.539 183.61L276.27 174.245C268.647 156.783 268.857 137.71 275.606 121.182L249.876 130.547Z" fill="white"/>
<path d="M223.74 81.8924C223.744 81.8576 223.742 81.8641 223.75 81.8379L249.48 72.4729C249.472 72.4991 249.474 72.4925 249.47 72.5274L223.74 81.8924Z" fill="white"/>
<path d="M223.75 81.8378C222.533 78.9888 221.681 75.9808 221.205 72.8965L246.935 63.5315C247.412 66.6158 248.263 69.6238 249.48 72.4727L223.75 81.8378Z" fill="white"/>
<path d="M259.833 199.184C268.489 209.981 280.041 217.616 292.739 221.576L318.469 212.211C305.771 208.251 294.219 200.616 285.564 189.819L259.833 199.184Z" fill="white"/>
<path d="M320.907 272.583C313.454 259.904 301.593 249.757 286.552 244.835L312.282 235.469C327.323 240.392 339.185 250.539 346.637 263.218L320.907 272.583Z" fill="white"/>
<path d="M292.733 221.576C293.123 221.711 293.49 221.896 293.891 222.02L319.621 212.655C319.22 212.531 318.853 212.346 318.463 212.211L292.733 221.576Z" fill="white"/>
<path d="M269.606 103.741C260.934 110.496 253.993 119.597 249.846 130.548L275.576 121.183C279.723 110.232 286.665 101.131 295.336 94.3759L269.606 103.741Z" fill="white"/>
<path d="M365.168 398.788C366.97 402.325 368.273 405.973 369.192 409.669L394.922 400.304C394.003 396.608 392.7 392.959 390.898 389.423L365.168 398.788Z" fill="white"/>
<path d="M320.934 272.603C320.908 272.594 320.914 272.596 320.886 272.584L346.616 263.219C346.644 263.231 346.638 263.229 346.664 263.238L320.934 272.603Z" fill="white"/>
<path d="M341.098 288.745C332.309 285.869 325.359 279.982 320.951 272.603L346.681 263.238C351.089 270.617 358.039 276.504 366.828 279.38L341.098 288.745Z" fill="white"/>
<path d="M278.975 173.01C270.937 157.235 277.172 137.96 292.891 129.951L318.621 120.586C302.902 128.595 296.668 147.87 304.706 163.645L278.975 173.01Z" fill="white"/>
<path d="M271.141 102.552C270.634 102.947 270.118 103.335 269.622 103.741L295.352 94.3763C295.848 93.9703 296.364 93.5817 296.871 93.1865L271.141 102.552Z" fill="white"/>
<path d="M271.127 102.55L271.127 102.55L296.857 93.1854C297.226 92.9153 297.595 92.6451 297.969 92.3837L272.239 101.749C271.865 102.01 271.496 102.28 271.127 102.55Z" fill="white"/>
<path d="M293.891 222.02C308.495 226.803 323.526 225.782 336.676 220.373L357.506 212.792C359.165 212.264 360.8 211.669 362.406 211.008L357.506 212.792C345.59 216.58 332.441 216.854 319.621 212.655L293.891 222.02Z" fill="white"/>
<path d="M278.966 173.011C286.999 188.778 306.262 195.072 321.981 187.062L340.361 180.372C342.858 179.799 345.325 178.913 347.711 177.697L340.361 180.372C326.404 183.578 311.51 177.02 304.696 163.646L278.966 173.011Z" fill="white"/>
<path d="M276.457 98.838C275.005 99.7529 273.624 100.741 272.258 101.749L297.988 92.3845C299.354 91.3764 300.736 90.3879 302.188 89.473L276.457 98.838Z" fill="white"/>
<path d="M278.528 97.651C277.842 98.0494 277.131 98.4174 276.468 98.8375L302.198 89.4724C302.861 89.0524 303.573 88.6844 304.258 88.286L278.528 97.651Z" fill="white"/>
<path d="M364.973 288.374C357.549 291.074 349.195 291.398 341.088 288.745L366.818 279.38C374.925 282.033 383.279 281.709 390.703 279.009L364.973 288.374Z" fill="white"/>
<path d="M292.383 78.9145C289.833 86.8292 284.827 93.2377 278.505 97.6518L304.235 88.2868C310.557 83.8727 315.564 77.4641 318.113 69.5494L292.383 78.9145Z" fill="white"/>
<path d="M336.69 220.373C336.754 220.349 336.819 220.325 336.883 220.3L362.613 210.935C362.549 210.96 362.485 210.984 362.42 211.008L336.69 220.373Z" fill="white"/>
<path d="M336.855 220.301C337.027 220.236 337.197 220.171 337.367 220.105L363.098 210.74C362.927 210.806 362.757 210.871 362.586 210.936L336.855 220.301Z" fill="white"/>
<path d="M337.39 220.105C337.503 220.061 337.615 220.017 337.727 219.973L363.457 210.608C363.345 210.652 363.233 210.696 363.121 210.74L337.39 220.105Z" fill="white"/>
<path d="M337.724 219.973L337.879 219.911L363.609 210.546L363.454 210.607L337.724 219.973Z" fill="white"/>
<path d="M337.901 219.911C337.938 219.919 337.931 219.917 337.957 219.926L363.688 210.561C363.661 210.552 363.668 210.554 363.631 210.546L337.901 219.911Z" fill="white"/>
<path d="M292.535 78.3114C292.479 78.51 292.439 78.7107 292.374 78.9137L318.104 69.5487C318.169 69.3457 318.209 69.145 318.266 68.9464L292.535 78.3114Z" fill="white"/>
<path d="M300.253 127.275C314.207 124.07 329.093 130.625 335.91 144.005L361.641 134.64C353.603 118.865 334.349 112.577 318.63 120.586L300.253 127.275C297.755 127.849 295.286 128.735 292.899 129.951L300.253 127.275Z" fill="white"/>
<path d="M335.905 144.004C343.939 159.771 337.713 179.052 321.994 187.062L347.724 177.697C363.443 169.687 369.669 150.406 361.635 134.639L335.905 144.004Z" fill="white"/>
<path d="M341.709 218.551C348.632 216.45 356.241 216.365 363.645 218.791L389.375 209.426C380.597 206.55 371.53 207.203 363.662 210.56L341.709 218.551C340.424 218.94 339.163 219.4 337.932 219.926L341.709 218.551Z" fill="white"/>
<path d="M387.285 265.2C383.677 276.393 375.21 284.641 364.974 288.369L390.691 279.008C400.933 275.283 409.405 267.033 413.016 255.835L387.285 265.2Z" fill="white"/>
<path d="M369.192 409.668C434.351 353.267 455.238 257.546 414.199 177.001L439.929 167.636C480.968 248.181 460.081 343.902 394.923 400.303L369.192 409.668Z" fill="white"/>
<path d="M363.639 218.791C382.936 225.106 393.521 245.88 387.285 265.199L413.015 255.834C419.251 236.515 408.667 215.741 389.369 209.426L363.639 218.791Z" fill="white"/>
<path d="M414.176 177.001C388.369 126.353 343.305 91.9897 292.537 78.3114L318.267 68.9464C369.035 82.6247 414.1 116.988 439.906 167.636L414.176 177.001Z" fill="white"/>
<path fill-rule="evenodd" clip-rule="evenodd" d="M335.884 144.005C327.846 128.23 308.592 121.942 292.873 129.951C277.154 137.961 270.919 157.235 278.957 173.011C286.991 188.778 306.253 195.072 321.973 187.063C337.692 179.053 343.918 159.772 335.884 144.005ZM117.39 378.651C125.424 394.418 146.503 399.786 164.469 390.632C182.435 381.478 190.482 361.269 182.449 345.502C174.411 329.726 153.335 324.367 135.369 333.521C117.403 342.675 109.352 362.876 117.39 378.651ZM296.903 376.458C271.973 389.16 262.111 419.745 274.867 444.78C276.356 447.704 278.109 450.406 280.047 452.904C271.814 454.489 263.546 455.533 255.284 456.011C255.425 450.631 254.388 445.354 252.32 440.526C252.326 440.495 252.324 440.502 252.334 440.469C246.453 426.99 245.215 411.429 250.078 396.365C255.535 379.451 267.559 366.561 282.392 359.485L282.37 359.441C295.067 354.236 305.479 343.688 310.033 329.57C318.268 304.056 304.288 276.618 278.804 268.279C264.705 263.665 250.055 265.893 238.375 273.097L238.355 273.058C223.911 280.899 206.418 283.054 189.527 277.527C174.48 272.602 162.618 262.455 155.166 249.776C155.14 249.767 155.146 249.769 155.118 249.756C150.712 242.382 143.757 236.486 134.975 233.612C115.684 227.299 94.9932 237.841 88.7615 257.159C82.5255 276.479 93.1125 297.257 112.408 303.567C121.192 306.446 130.257 305.789 138.123 302.437C138.154 302.444 138.143 302.444 138.176 302.444C138.578 302.282 138.979 302.138 139.375 301.986C152.529 296.575 167.562 295.558 182.163 300.332C182.564 300.467 182.928 300.648 183.325 300.785C196.023 304.745 207.574 312.38 216.228 323.172C219.113 326.769 221.679 330.704 223.854 334.974C224.488 336.217 224.995 337.491 225.55 338.751C233.166 356.211 232.956 375.284 226.214 391.814C222.067 402.764 215.121 411.868 206.447 418.618C205.954 419.029 205.438 419.417 204.935 419.81C204.559 420.078 204.19 420.348 203.815 420.605C202.451 421.618 201.075 422.609 199.624 423.523C198.954 423.941 198.242 424.309 197.557 424.708C191.239 429.12 186.233 435.528 183.679 443.445C183.377 444.392 183.143 445.344 182.919 446.295C136.823 430.794 96.4733 397.887 72.6011 351.035C30.386 268.183 53.6643 169.241 123.296 113.587C123.961 118.058 125.31 122.503 127.48 126.76C138.195 147.79 163.862 156.19 184.808 145.517C205.749 134.847 214.036 109.147 203.321 88.1171C201.291 84.1335 198.727 80.6084 195.761 77.578C204.184 75.4368 212.67 73.8595 221.176 72.8965C221.652 75.9808 222.504 78.9888 223.721 81.8377C223.713 81.8639 223.715 81.8574 223.711 81.8923C229.586 95.3693 230.823 110.93 225.965 125.992C220.508 142.906 208.486 155.8 193.653 162.877L193.671 162.911C180.973 168.128 170.564 178.668 166.005 192.789C157.775 218.301 171.758 245.743 197.235 254.081C211.338 258.692 225.984 256.466 237.665 249.256L237.685 249.295C252.131 241.458 269.627 239.307 286.518 244.835C301.559 249.757 313.421 259.904 320.873 272.584C320.901 272.596 320.895 272.594 320.921 272.603C325.329 279.982 332.279 285.869 341.068 288.745C360.359 295.058 381.05 284.516 387.277 265.2C393.513 245.881 382.928 225.107 363.631 218.792C354.853 215.915 345.786 216.568 337.917 219.926C337.891 219.917 337.898 219.92 337.861 219.911C337.462 220.07 337.066 220.223 336.663 220.374C323.514 225.782 308.483 226.803 293.878 222.02C293.477 221.896 293.11 221.711 292.72 221.576C280.022 217.616 268.471 209.981 259.815 199.185C256.932 195.592 254.36 191.655 252.184 187.385C251.551 186.142 251.044 184.869 250.495 183.61C242.873 166.148 243.083 147.075 249.831 130.548C253.978 119.598 260.92 110.496 269.591 103.741C270.087 103.335 270.603 102.946 271.11 102.551C271.479 102.281 271.848 102.011 272.222 101.749C273.588 100.741 274.97 99.7528 276.422 98.8379C277.085 98.4179 277.796 98.0498 278.482 97.6515C284.804 93.2373 289.81 86.8288 292.359 78.9141C292.425 78.7111 292.464 78.5104 292.521 78.3118C343.289 91.9901 388.354 126.353 414.16 177.002C455.2 257.547 434.313 353.268 369.154 409.669C368.235 405.973 366.932 402.325 365.131 398.789C352.375 373.753 321.829 363.757 296.903 376.458V376.458Z" fill="#F7FF62"/>
</g>
<defs>
<clipPath id="clip0_2_13967">
<rect width="512" height="512" fill="white"/>
</clipPath>
</defs>
</svg>
