<svg width="142" height="42" viewBox="0 0 142 42" fill="none" xmlns="http://www.w3.org/2000/svg">
<path fill-rule="evenodd" clip-rule="evenodd" d="M33.3237 7.60944C32.4601 5.92133 30.3914 5.24844 28.7025 6.1055C27.0136 6.96255 26.3438 9.02521 27.2074 10.7134C28.0705 12.4007 30.1402 13.0742 31.8291 12.217C33.518 11.36 34.1869 9.29669 33.3237 7.60944ZM9.84912 32.7192C10.7123 34.4066 12.9772 34.981 14.9076 34.0014C16.8379 33.0217 17.7025 30.8591 16.8393 29.1719C15.9757 27.4838 13.7113 26.9102 11.781 27.8898C9.85062 28.8693 8.98548 31.0311 9.84912 32.7192ZM29.1354 32.4846C26.4568 33.8439 25.3971 37.1168 26.7676 39.7959C26.9277 40.1088 27.116 40.3979 27.3242 40.6652C26.4397 40.8349 25.5514 40.9466 24.6637 40.9977C24.6788 40.422 24.5673 39.8573 24.3451 39.3407C24.3457 39.3373 24.3455 39.3381 24.3467 39.3346C23.7147 37.8921 23.5818 36.2269 24.1043 34.6149C24.6905 32.8049 25.9824 31.4255 27.5762 30.6683L27.5738 30.6636C28.9381 30.1066 30.0567 28.9779 30.5461 27.4671C31.4308 24.7368 29.9287 21.8006 27.1906 20.9082C26.0413 20.5336 24.8578 20.5804 23.8056 20.9616C23.4709 21.0827 23.1497 21.2378 22.8469 21.4238L22.8447 21.4196C22.5528 21.5774 22.2494 21.7137 21.937 21.827C20.5881 22.3164 19.072 22.3781 17.5984 21.8979C15.9817 21.3708 14.7072 20.285 13.9065 18.9282C13.9037 18.9272 13.9045 18.9274 13.9014 18.926C13.428 18.1369 12.6808 17.506 11.7371 17.1984C10.8662 16.9145 9.96859 16.9492 9.17082 17.2381C8.07039 17.6369 7.16002 18.5197 6.77182 19.7182C6.1018 21.7857 7.23931 24.0092 9.31243 24.6844C10.2563 24.9925 11.2303 24.9222 12.0755 24.5635C12.0787 24.5643 12.0775 24.5643 12.081 24.5643C12.0957 24.5584 12.1102 24.5528 12.1248 24.5473C12.1386 24.542 12.1526 24.5368 12.1665 24.5316C12.1713 24.5298 12.1761 24.528 12.181 24.5262C12.1906 24.5225 12.2003 24.5189 12.21 24.5153C13.6233 23.9362 15.2385 23.8274 16.8072 24.3383C16.8503 24.3527 16.8895 24.3721 16.932 24.3867C18.2963 24.8105 19.5375 25.6275 20.4672 26.7824C20.7772 27.1673 21.0529 27.5884 21.2867 28.0454C21.3547 28.1784 21.4092 28.3147 21.4688 28.4495C22.2871 30.318 22.2646 32.359 21.5402 34.1279C21.0946 35.2997 20.3483 36.2739 19.4164 36.9962C19.3634 37.0402 19.3079 37.0817 19.2539 37.1238C19.2136 37.1525 19.1739 37.1814 19.1335 37.2089C18.987 37.3173 18.8392 37.4233 18.6832 37.5211C18.6113 37.5659 18.5349 37.6052 18.4612 37.6479C17.7824 38.1201 17.2445 38.8058 16.9701 39.653C16.9376 39.7544 16.9125 39.8562 16.8884 39.958C11.9358 38.2992 7.60043 34.7778 5.03548 29.7641C0.499735 20.8979 3.00084 10.31 10.4823 4.35436C10.5537 4.83281 10.6988 5.30848 10.9318 5.76402C12.0831 8.01448 14.8408 8.91338 17.0914 7.77124C19.3414 6.62943 20.2318 3.87925 19.0805 1.62878C18.8625 1.20249 18.5869 0.825263 18.2682 0.500975C19.1732 0.271842 20.0851 0.103052 20.9989 0C21.0501 0.330056 21.1416 0.651947 21.2723 0.956813C21.2715 0.959617 21.2717 0.958921 21.2712 0.962656C21.9025 2.40485 22.0355 4.07003 21.5134 5.68184C20.9272 7.49183 19.6355 8.87164 18.0417 9.62897L18.0436 9.6326C16.6794 10.1909 15.5609 11.3188 15.0711 12.8299C14.1868 15.56 15.6892 18.4966 18.4266 19.3889C19.5759 19.7631 20.7587 19.7165 21.8108 19.3355C22.1457 19.2141 22.4674 19.0588 22.7706 18.8725L22.7728 18.8767C23.064 18.7193 23.3669 18.5833 23.6788 18.4702C25.0283 17.9806 26.5453 17.9189 28.0196 18.3994C29.6355 18.9261 30.91 20.012 31.7107 21.3689C31.7137 21.3702 31.713 21.37 31.7158 21.3709C32.1894 22.1606 32.9362 22.7905 33.8805 23.0983C34.7515 23.3822 35.6491 23.3475 36.4468 23.0586C37.5472 22.6599 38.4575 21.7771 38.8454 20.5787C39.5154 18.5114 38.3782 16.2883 36.3047 15.6125C35.3616 15.3047 34.3874 15.3745 33.5421 15.7339C33.5393 15.7329 33.5399 15.7332 33.5359 15.7323C33.5303 15.7345 33.5248 15.7367 33.5193 15.7389C33.5072 15.7436 33.4951 15.7483 33.4831 15.753C33.4648 15.7601 33.4464 15.767 33.4281 15.774C33.4212 15.7766 33.4142 15.7791 33.4073 15.7818C31.9944 16.3605 30.3794 16.4698 28.8102 15.958C28.7671 15.9447 28.7278 15.9249 28.6858 15.9104C27.3216 15.4867 26.0804 14.6696 25.1504 13.5143C24.8407 13.1299 24.5643 12.7085 24.3305 12.2516C24.2625 12.1186 24.208 11.9824 24.1491 11.8476C23.3301 9.979 23.3526 7.93797 24.0778 6.16938C24.5233 4.99761 25.2691 4.02359 26.2007 3.30071C26.2541 3.25726 26.3095 3.21568 26.364 3.17339C26.4036 3.14448 26.4434 3.11557 26.4834 3.0876C26.6302 2.97972 26.7787 2.87394 26.9347 2.77603C27.0059 2.73109 27.0824 2.6917 27.156 2.64907C27.8353 2.1767 28.3732 1.49092 28.6471 0.643954C28.6541 0.62223 28.6584 0.600753 28.6645 0.5795C34.1192 2.04324 38.9611 5.72047 41.7339 11.1405C46.1433 19.7598 43.8991 30.003 36.8983 36.0386C36.7995 35.6431 36.6595 35.2527 36.4659 34.8743C35.0954 32.1952 31.8135 31.1255 29.1354 32.4846Z" fill="white"/>
<path d="M2.26855 30.7662C4.83346 35.7799 9.16888 39.3013 14.1215 40.9601L16.886 39.958C11.9334 38.2992 7.59805 34.7777 5.03309 29.764L2.26855 30.7662Z" fill="white"/>
<path d="M7.08379 33.7214C6.22016 32.0332 7.08518 29.8715 9.01552 28.8919L11.7801 27.8898C9.84982 28.8694 8.98468 31.031 9.84831 32.7192L7.08379 33.7214Z" fill="white"/>
<path d="M6.54638 25.6866C4.4732 25.0113 3.33569 22.7878 4.00571 20.7203L6.77029 19.7181C6.10027 21.7856 7.23778 24.0091 9.3109 24.6844L6.54638 25.6866Z" fill="white"/>
<path d="M7.08301 33.7214C7.94621 35.4087 10.211 35.9831 12.1413 35.0035L13.8803 34.3731C14.2262 34.2945 14.5711 34.1713 14.9059 34.0013L13.8803 34.3731C12.2321 34.7482 10.561 34.1138 9.84753 32.7192L7.08301 33.7214Z" fill="white"/>
<path d="M4.00781 20.7203C4.396 19.5217 5.30632 18.6389 6.40687 18.2402L9.17 17.2385C8.0702 17.6375 7.16037 18.5201 6.77239 19.7181L4.00781 20.7203Z" fill="white"/>
<path d="M7.71672 5.35653C0.235218 11.3122 -2.2659 21.9001 2.26986 30.7662L5.0344 29.7641C0.498648 20.8979 2.99976 10.31 10.4812 4.35437L7.71672 5.35653Z" fill="white"/>
<path d="M6.54688 25.6866C7.49077 25.9947 8.46474 25.9243 9.3099 25.5656L11.6722 24.7093C11.8089 24.6679 11.9432 24.6192 12.0744 24.5635L11.6722 24.7093C10.9277 24.9349 10.1088 24.9447 9.3114 24.6844L6.54688 25.6866Z" fill="white"/>
<path d="M14.125 40.9602C14.149 40.8583 14.1742 40.7566 14.2067 40.6552L16.9712 39.6531C16.9387 39.7544 16.9136 39.8562 16.8895 39.9581L14.125 40.9602Z" fill="white"/>
<path d="M9.31223 25.5664C9.30868 25.5664 9.30986 25.5664 9.30664 25.5656L12.0712 24.5635C12.0745 24.5642 12.0733 24.5642 12.0768 24.5642L9.31223 25.5664Z" fill="white"/>
<path d="M9.35916 25.5494C9.34455 25.5549 9.33004 25.5605 9.31543 25.5663L12.08 24.5641C12.0946 24.5584 12.1092 24.5527 12.1237 24.5472L9.35916 25.5494Z" fill="white"/>
<path d="M9.39775 25.5358C9.38561 25.5403 9.37347 25.5448 9.36133 25.5494L12.126 24.5472C12.1398 24.542 12.1538 24.5368 12.1676 24.5316L9.40312 25.5338L9.39775 25.5358Z" fill="white"/>
<path d="M9.41381 25.5283L9.39941 25.5337L12.1639 24.5316L12.1784 24.5261L9.41381 25.5283Z" fill="white"/>
<path d="M9.44405 25.5173C9.43438 25.521 9.42471 25.5247 9.41504 25.5283L12.1796 24.5262C12.1892 24.5225 12.1989 24.5189 12.2086 24.5151L9.44405 25.5173Z" fill="white"/>
<path d="M14.2041 40.6552C14.4784 39.808 15.0164 39.1221 15.6951 38.65L18.4597 37.6478C17.7809 38.12 17.243 38.8058 16.9686 39.653L14.2041 40.6552Z" fill="white"/>
<path d="M10.0398 28.5201C11.6877 28.145 13.3583 28.7789 14.072 30.1741L16.8365 29.172C15.9729 27.4838 13.7085 26.9102 11.7782 27.8898L10.0398 28.5201C9.69368 28.5987 9.34868 28.722 9.01367 28.8919L10.0398 28.5201Z" fill="white"/>
<path d="M6.40332 18.2403C7.20098 17.9513 8.09857 17.9167 8.96961 18.2006L11.7341 17.1984C10.8631 16.9146 9.96551 16.9491 9.16785 17.2382L6.40332 18.2403Z" fill="white"/>
<path d="M14.0744 30.1739C14.9376 31.8613 14.0729 34.0239 12.1426 35.0035L14.9071 34.0013C16.8374 33.0216 17.7021 30.859 16.8389 29.1718L14.0744 30.1739Z" fill="white"/>
<path d="M15.6953 38.65C15.7689 38.6074 15.8454 38.568 15.9174 38.5233L18.6819 37.5211C18.6099 37.5658 18.5335 37.6052 18.4598 37.6478L15.6953 38.65Z" fill="white"/>
<path d="M15.9141 38.5233C16.0701 38.4254 16.2178 38.3193 16.3644 38.211L19.1289 37.2089C18.9823 37.3172 18.8346 37.4232 18.6786 37.5211L15.9141 38.5233Z" fill="white"/>
<path d="M9.97102 25.3266C9.79278 25.383 9.61711 25.4466 9.44434 25.5175L9.97102 25.3266C11.2518 24.9211 12.6646 24.892 14.0416 25.3405L16.8062 24.3383C15.2375 23.8274 13.6222 23.9363 12.209 24.5153L9.97102 25.3266Z" fill="white"/>
<path d="M16.3682 38.211C16.4085 38.1835 16.4481 38.1546 16.4885 38.1259L19.253 37.1238C19.2127 37.1525 19.1731 37.1814 19.1327 37.2089L16.3682 38.211Z" fill="white"/>
<path d="M16.4883 38.1259C16.5422 38.0839 16.5977 38.0424 16.6507 37.9984L19.4153 36.9962C19.3622 37.0402 19.3067 37.0817 19.2528 37.1238L16.4883 38.1259Z" fill="white"/>
<path d="M8.96875 18.2007C9.91232 18.5082 10.6595 19.1391 11.1329 19.9282L13.8975 18.9261C13.4241 18.137 12.6768 17.506 11.7333 17.1985L8.96875 18.2007Z" fill="white"/>
<path d="M11.1367 19.9282C11.1397 19.9296 11.139 19.9293 11.1419 19.9302L13.9064 18.9281C13.9036 18.9271 13.9043 18.9274 13.9012 18.926L11.1367 19.9282Z" fill="white"/>
<path d="M16.6523 37.9984C17.5842 37.2761 18.3305 36.3019 18.7761 35.1301L21.5406 34.1278C21.095 35.2997 20.3488 36.2739 19.4169 36.9963L16.6523 37.9984Z" fill="white"/>
<path d="M14.1678 25.3889C14.1253 25.3742 14.0861 25.3549 14.043 25.3404L16.8075 24.3383C16.8506 24.3527 16.8898 24.3721 16.9325 24.3867L14.1678 25.3889Z" fill="white"/>
<path d="M11.1406 19.9304C11.9413 21.2872 13.2158 22.373 14.8325 22.9001L17.597 21.8979C15.9803 21.3709 14.7058 20.285 13.9051 18.9282L11.1406 19.9304Z" fill="white"/>
<path d="M8.16428 6.76631C7.93124 6.31065 7.78629 5.83498 7.71484 5.35653L10.4794 4.35437C10.5508 4.83282 10.6958 5.30849 10.9289 5.76414L8.16428 6.76631Z" fill="white"/>
<path d="M17.7003 27.7846C16.7704 26.6297 15.5293 25.8126 14.165 25.3889L16.9296 24.3867C18.2938 24.8105 19.535 25.6275 20.4648 26.7824L17.7003 27.7846Z" fill="white"/>
<path d="M21.5791 40.3429C21.8013 40.8596 21.9127 41.4243 21.8976 42L24.6621 40.9979C24.6772 40.4222 24.5658 39.8575 24.3436 39.3407L21.5791 40.3429Z" fill="white"/>
<path d="M21.5797 40.3368C21.5786 40.3402 21.5788 40.3395 21.5781 40.3428L24.3426 39.3406C24.3434 39.3374 24.3431 39.338 24.3443 39.3346L21.5797 40.3368Z" fill="white"/>
<path d="M18.7715 35.13C19.4959 33.3612 19.5185 31.3202 18.7002 29.4517L21.4648 28.4496C22.283 30.318 22.2606 32.359 21.5361 34.1278L18.7715 35.13Z" fill="white"/>
<path d="M21.3377 35.617C20.8152 37.2289 20.9481 38.8942 21.5801 40.3367L24.3447 39.3344C23.7127 37.892 23.5798 36.2268 24.1023 34.6149L21.3377 35.617Z" fill="white"/>
<path d="M18.5177 29.0475C18.2839 28.5905 18.0082 28.1694 17.6982 27.7845L20.4629 26.7823C20.7727 27.1673 21.0484 27.5884 21.2822 28.0453L18.5177 29.0475Z" fill="white"/>
<path d="M15.6618 20.391C12.9244 19.4988 11.4221 16.5622 12.3063 13.8321L15.0708 12.83C14.1866 15.56 15.689 18.4967 18.4263 19.3888L15.6618 20.391Z" fill="white"/>
<path d="M18.7018 29.4518C18.6421 29.3168 18.5875 29.1806 18.5195 29.0476L21.2842 28.0454C21.3522 28.1784 21.4066 28.3147 21.4663 28.4496L18.7018 29.4518Z" fill="white"/>
<path d="M21.8965 41.9999C22.7842 41.9488 23.6725 41.837 24.5571 41.6674L27.3216 40.6653C26.4372 40.8348 25.5488 40.9466 24.661 40.9978L21.8965 41.9999Z" fill="white"/>
<path d="M8.16504 6.7662C9.31641 9.01666 12.0742 9.91545 14.3247 8.77342L16.0376 8.15243C16.3949 8.07068 16.7479 7.9444 17.0892 7.77126L16.0376 8.15243C14.0391 8.60959 11.9063 7.67313 10.9296 5.76404L8.16504 6.7662Z" fill="white"/>
<path d="M14.8301 22.9001C16.3037 23.3803 17.8198 23.3186 19.1687 22.8292L21.9302 21.8281C20.5821 22.3165 19.0671 22.3777 17.5947 21.8979L14.8301 22.9001Z" fill="white"/>
<path d="M24.5575 41.6674C24.3493 41.4 24.161 41.1109 24.001 40.7981L26.7655 39.7959C26.9255 40.1087 27.1138 40.3978 27.3221 40.6653L24.5575 41.6674Z" fill="white"/>
<path d="M12.3047 13.832C12.7945 12.321 13.9129 11.193 15.2772 10.6349L18.0417 9.63269C16.6775 10.1909 15.559 11.3189 15.0692 12.8299L12.3047 13.832Z" fill="white"/>
<path d="M19.0425 20.3376C17.9905 20.7187 16.8075 20.7652 15.6582 20.3909L18.4227 19.3887C19.5721 19.7631 20.755 19.7165 21.807 19.3354L19.0425 20.3376Z" fill="white"/>
<path d="M24.8098 31.6704C23.2161 32.4277 21.9242 33.8071 21.3379 35.6171L24.1024 34.6149C24.6887 32.8049 25.9806 31.4255 27.5745 30.6682L24.8098 31.6704Z" fill="white"/>
<path d="M19.1699 22.8292C19.4824 22.7158 19.7858 22.5796 20.0776 22.4217L22.8422 21.4196C22.5503 21.5774 22.2469 21.7136 21.9344 21.8271L19.1699 22.8292Z" fill="white"/>
<path d="M15.2773 10.6348L15.2754 10.6311L18.0399 9.62891L18.0418 9.63254L15.2773 10.6348Z" fill="white"/>
<path d="M23.9997 40.798C22.6292 38.119 23.6888 34.846 26.3675 33.4867L29.132 32.4845C26.4534 33.8439 25.3937 37.1168 26.7642 39.7959L23.9997 40.798Z" fill="white"/>
<path d="M20.0791 22.4217L20.0813 22.4259L22.8458 21.4237L22.8436 21.4196L20.0791 22.4217Z" fill="white"/>
<path d="M20.0032 19.8747C19.7009 20.0606 19.38 20.2154 19.0459 20.3367L21.808 19.3355C22.143 19.2141 22.4646 19.0589 22.7677 18.8726L20.0032 19.8747Z" fill="white"/>
<path d="M20.0801 22.426C20.3829 22.2399 20.7041 22.085 21.0388 21.9637L23.8007 20.9625C23.467 21.0836 23.1466 21.2383 22.8446 21.4239L20.0801 22.426Z" fill="white"/>
<path d="M20.0031 19.8789L20.001 19.8747L22.7655 18.8726L22.7677 18.8767L20.0031 19.8789Z" fill="white"/>
<path d="M16.3143 2.63095C17.4657 4.8814 16.5753 7.6316 14.3252 8.77342L17.0897 7.77126C19.3398 6.62944 20.2302 3.87924 19.0789 1.62878L16.3143 2.63095Z" fill="white"/>
<path d="M24.8076 31.6657L24.81 31.6704L27.5746 30.6683L27.5721 30.6636L24.8076 31.6657Z" fill="white"/>
<path d="M20.9129 19.4724C20.6011 19.5855 20.2981 19.7215 20.0068 19.8789L22.7714 18.8768C23.0627 18.7193 23.3656 18.5833 23.6774 18.4702L20.9129 19.4724Z" fill="white"/>
<path d="M15.2773 10.631C16.8712 9.87372 18.1629 8.49391 18.7491 6.68381L21.5136 5.68164C20.9274 7.49174 19.6357 8.87155 18.042 9.62877L15.2773 10.631Z" fill="white"/>
<path d="M21.04 21.9637C22.0922 21.5825 23.2757 21.5356 24.4251 21.9103L27.1896 20.9081C26.0403 20.5335 24.8569 20.5803 23.8046 20.9615L21.04 21.9637Z" fill="white"/>
<path d="M15.5 1.50302C15.8187 1.82731 16.0943 2.20453 16.3123 2.63083L19.0769 1.62866C18.8588 1.20237 18.5832 0.825143 18.2645 0.500854L15.5 1.50302Z" fill="white"/>
<path d="M27.7819 28.4693C27.2925 29.9801 26.1739 31.1088 24.8096 31.6658L27.5741 30.6636C28.9384 30.1066 30.057 28.978 30.5464 27.4672L27.7819 28.4693Z" fill="white"/>
<path d="M25.2518 19.4016C23.7786 18.9214 22.2628 18.9828 20.9141 19.4713L23.6756 18.4702C25.0251 17.9806 26.5421 17.9189 28.0163 18.3994L25.2518 19.4016Z" fill="white"/>
<path d="M18.2327 1.00216C17.3188 1.10523 16.407 1.27402 15.502 1.50315L18.2666 0.500975C19.1715 0.271842 20.0834 0.103052 20.9973 0L18.2327 1.00216Z" fill="white"/>
<path d="M21.3818 12.8499C21.4407 12.9846 21.4952 13.1209 21.5633 13.2538L24.3278 12.2516C24.2598 12.1187 24.2052 11.9824 24.1464 11.8478L21.3818 12.8499Z" fill="white"/>
<path d="M24.4248 21.9102C27.1629 22.8027 28.665 25.7389 27.7803 28.4692L30.5448 27.467C31.4295 24.7367 29.9274 21.8006 27.1893 20.9081L24.4248 21.9102Z" fill="white"/>
<path d="M21.5654 13.2536C21.7992 13.7106 22.0757 14.1319 22.3853 14.5164L25.1499 13.5142C24.8402 13.1297 24.5638 12.7084 24.33 12.2515L21.5654 13.2536Z" fill="white"/>
<path d="M18.7471 6.684C19.269 5.07219 19.1361 3.40702 18.5049 1.96481L21.2694 0.962646C21.9006 2.40485 22.0335 4.07003 21.5116 5.68173L18.7471 6.684Z" fill="white"/>
<path d="M27.6205 33.0331C29.9987 32.4891 32.5371 33.6036 33.6998 35.8764L36.4643 34.8743C35.0938 32.1951 31.8118 31.1254 29.1338 32.4845L27.6205 33.0331C27.1954 33.1303 26.7753 33.2805 26.3691 33.4867L27.6205 33.0331Z" fill="white"/>
<path d="M21.3141 7.17148C20.5889 8.94017 20.5664 10.9812 21.3853 12.8498L24.1499 11.8477C23.3309 9.97903 23.3534 7.938 24.0786 6.16931L21.3141 7.17148Z" fill="white"/>
<path d="M18.5059 1.96478C18.5063 1.96106 18.5061 1.96176 18.5069 1.95895L21.2715 0.956787C21.2706 0.959591 21.2708 0.958885 21.2704 0.962619L18.5059 1.96478Z" fill="white"/>
<path d="M18.5068 1.95899C18.3761 1.65411 18.2845 1.33222 18.2334 1.00216L20.9979 0C21.0492 0.330056 21.1406 0.651947 21.2714 0.956813L18.5068 1.95899Z" fill="white"/>
<path d="M22.3838 14.5164C23.3138 15.6719 24.555 16.4889 25.9193 16.9127L28.6839 15.9105C27.3195 15.4867 26.0783 14.6697 25.1484 13.5143L22.3838 14.5164Z" fill="white"/>
<path d="M28.9461 22.3709C28.1453 21.0141 26.8709 19.9283 25.2549 19.4016L28.0194 18.3993C29.6355 18.9261 30.91 20.012 31.7106 21.3688L28.9461 22.3709Z" fill="white"/>
<path d="M25.9189 16.9126C25.9608 16.927 26.0003 16.9468 26.0434 16.9601L28.8079 15.9579C28.7648 15.9446 28.7254 15.9248 28.6835 15.9104L25.9189 16.9126Z" fill="white"/>
<path d="M23.4336 4.30283C22.5019 5.0257 21.7561 5.99961 21.3105 7.1715L24.0751 6.16933C24.5206 4.99745 25.2665 4.02353 26.1982 3.30066L23.4336 4.30283Z" fill="white"/>
<path d="M33.7012 35.8763C33.8948 36.2548 34.0348 36.6452 34.1335 37.0407L36.8981 36.0385C36.7993 35.643 36.6593 35.2525 36.4657 34.8741L33.7012 35.8763Z" fill="white"/>
<path d="M28.9485 22.3731C28.9457 22.3721 28.9464 22.3723 28.9434 22.3711L31.7079 21.3689C31.7109 21.3702 31.7102 21.37 31.713 21.3709L28.9485 22.3731Z" fill="white"/>
<path d="M31.1149 24.1005C30.1705 23.7928 29.4238 23.1628 28.9502 22.3731L31.7147 21.371C32.1883 22.1606 32.9351 22.7906 33.8794 23.0984L31.1149 24.1005Z" fill="white"/>
<path d="M24.4406 11.7154C23.577 10.0273 24.2469 7.96469 25.9358 7.10763L28.7003 6.10547C27.0114 6.96253 26.3416 9.02518 27.2053 10.7133L24.4406 11.7154Z" fill="white"/>
<path d="M23.5988 4.17568C23.5443 4.21795 23.4888 4.25947 23.4355 4.30292L26.2001 3.30078C26.2534 3.25734 26.3088 3.21575 26.3633 3.17346L23.5988 4.17568Z" fill="white"/>
<path d="M23.5977 4.17544V4.17544L26.3622 3.17332C26.4018 3.14441 26.4415 3.1155 26.4817 3.08752L23.7171 4.08972C23.6769 4.11765 23.6373 4.14654 23.5977 4.17544Z" fill="white"/>
<path d="M26.043 16.9602C27.6121 17.472 29.2271 17.3627 30.6399 16.7839L32.878 15.9726C33.0562 15.9161 33.2319 15.8525 33.4045 15.7817L32.878 15.9726C31.5977 16.378 30.1849 16.4073 28.8075 15.958L26.043 16.9602Z" fill="white"/>
<path d="M24.4395 11.7155C25.3025 13.4028 27.3722 14.0763 29.0611 13.2192L31.036 12.5033C31.3042 12.4419 31.5693 12.3471 31.8257 12.217L31.036 12.5033C29.5364 12.8463 27.9361 12.1446 27.204 10.7134L24.4395 11.7155Z" fill="white"/>
<path d="M24.1699 3.77817C24.0139 3.87607 23.8655 3.98181 23.7188 4.08968L26.4833 3.08757C26.63 2.97969 26.7785 2.87391 26.9345 2.776L24.1699 3.77817Z" fill="white"/>
<path d="M24.3922 3.65121C24.3185 3.69385 24.2421 3.73323 24.1709 3.77818L26.9354 2.77601C27.0067 2.73106 27.0832 2.69168 27.1568 2.64905L24.3922 3.65121Z" fill="white"/>
<path d="M33.6805 24.0608C32.8829 24.3497 31.9853 24.3844 31.1143 24.1005L33.8788 23.0983C34.7498 23.3822 35.6474 23.3475 36.4451 23.0586L33.6805 24.0608Z" fill="white"/>
<path d="M25.8808 1.64622C25.6068 2.49318 25.0689 3.17897 24.3896 3.65133L27.1542 2.64916C27.8334 2.1768 28.3714 1.49101 28.6453 0.644043L25.8808 1.64622Z" fill="white"/>
<path d="M30.6416 16.7839C30.6485 16.7813 30.6555 16.7788 30.6623 16.7761L33.4269 15.7739C33.42 15.7766 33.4131 15.7792 33.4061 15.7817L30.6416 16.7839Z" fill="white"/>
<path d="M30.6592 16.7762C30.6777 16.7692 30.6959 16.7623 30.7142 16.7552L33.4788 15.7531C33.4605 15.7601 33.4422 15.7671 33.4238 15.774L30.6592 16.7762Z" fill="white"/>
<path d="M30.7168 16.7552C30.7289 16.7505 30.741 16.7458 30.753 16.7411L33.5175 15.7389C33.5055 15.7436 33.4935 15.7483 33.4814 15.753L30.7168 16.7552Z" fill="white"/>
<path d="M30.7529 16.7411L30.7696 16.7345L33.5341 15.7323L33.5175 15.7388L30.7529 16.7411Z" fill="white"/>
<path d="M30.7715 16.7345C30.7755 16.7353 30.7747 16.7351 30.7775 16.7361L33.5421 15.7339C33.5392 15.7329 33.54 15.7332 33.536 15.7323L30.7715 16.7345Z" fill="white"/>
<path d="M25.8972 1.58163C25.8912 1.60288 25.8869 1.62436 25.8799 1.64609L28.6444 0.643921C28.6514 0.622198 28.6557 0.60072 28.6618 0.579468L25.8972 1.58163Z" fill="white"/>
<path d="M26.7267 6.82136C28.2259 6.47838 29.8253 7.17985 30.5578 8.61166L33.3224 7.6095C32.4588 5.92139 30.3901 5.2485 28.7012 6.10556L26.7267 6.82136C26.4583 6.88278 26.193 6.97759 25.9365 7.10772L26.7267 6.82136Z" fill="white"/>
<path d="M30.5571 8.61154C31.4204 10.2988 30.7514 12.3621 29.0625 13.2192L31.827 12.2171C33.5159 11.3599 34.1849 9.29663 33.3217 7.60938L30.5571 8.61154Z" fill="white"/>
<path d="M31.1812 16.5889C31.925 16.3641 32.7426 16.355 33.5381 16.6146L36.3026 15.6124C35.3595 15.3046 34.3853 15.3745 33.5399 15.7338L31.1812 16.5889C31.0431 16.6305 30.9077 16.6797 30.7754 16.736L31.1812 16.5889Z" fill="white"/>
<path d="M36.0778 21.5809C35.6902 22.7787 34.7805 23.6613 33.6807 24.0603L36.4438 23.0585C37.5442 22.6599 38.4545 21.7771 38.8425 20.5787L36.0778 21.5809Z" fill="white"/>
<path d="M34.1338 37.0406C41.1347 31.0051 43.3789 20.7618 38.9695 12.1425L41.734 11.1404C46.1434 19.7596 43.8992 30.0029 36.8984 36.0385L34.1338 37.0406Z" fill="white"/>
<path d="M33.5371 16.6146C35.6104 17.2904 36.7477 19.5134 36.0777 21.5808L38.8422 20.5786C39.5123 18.5113 38.3751 16.2882 36.3016 15.6124L33.5371 16.6146Z" fill="white"/>
<path d="M38.9668 12.1426C36.194 6.72264 31.3522 3.04537 25.8975 1.58163L28.662 0.579468C34.1167 2.04321 38.9586 5.72048 41.7313 11.1404L38.9668 12.1426Z" fill="white"/>
<path fill-rule="evenodd" clip-rule="evenodd" d="M30.555 8.61164C29.6914 6.92353 27.6226 6.25064 25.9337 7.1077C24.2448 7.96486 23.5749 10.0274 24.4386 11.7156C25.3018 13.4029 27.3713 14.0764 29.0603 13.2193C30.7493 12.3622 31.4182 10.2989 30.555 8.61164ZM7.07921 33.7215C7.94241 35.4088 10.2072 35.9832 12.1375 35.0036C14.0679 34.024 14.9325 31.8614 14.0694 30.1742C13.2058 28.486 10.9413 27.9125 9.01093 28.8921C7.0806 29.8717 6.21557 32.0334 7.07921 33.7215ZM26.3667 33.4868C23.6882 34.8461 22.6286 38.119 23.9991 40.7981C24.1591 41.111 24.3474 41.4001 24.5557 41.6674C23.6711 41.8371 22.7827 41.9488 21.895 41.9999C21.9102 41.4242 21.7988 40.8595 21.5766 40.3428C21.5772 40.3395 21.577 40.3403 21.5781 40.3368C20.9462 38.8943 20.8132 37.2291 21.3357 35.6171C21.922 33.8071 23.2139 32.4277 24.8076 31.6705L24.8053 31.6658C26.1695 31.1088 27.2882 29.9801 27.7775 28.4693C28.6623 25.739 27.1602 22.8028 24.4221 21.9104C22.9073 21.4167 21.3332 21.6551 20.0783 22.426L20.0761 22.4218C18.5242 23.2609 16.6447 23.4915 14.8299 22.9001C13.2132 22.373 11.9387 21.2872 11.138 19.9304C11.1352 19.9294 11.1358 19.9296 11.1328 19.9282C10.6594 19.1391 9.91217 18.5082 8.9686 18.2006C6.89591 17.5251 4.67281 18.6532 4.00326 20.7204C3.33324 22.7879 4.47074 25.0114 6.54392 25.6866C7.48771 25.9947 8.46168 25.9244 9.30684 25.5657C9.31017 25.5665 9.30898 25.5665 9.31253 25.5665C9.35572 25.5491 9.39881 25.5337 9.44135 25.5175C10.8547 24.9384 12.4699 24.8296 14.0387 25.3405C14.0817 25.3549 14.1208 25.3743 14.1635 25.3889C15.5278 25.8127 16.7689 26.6297 17.6987 27.7846C18.0087 28.1695 18.2844 28.5906 18.5181 29.0476C18.5862 29.1806 18.6407 29.3169 18.7003 29.4517C19.5186 31.3202 19.496 33.3612 18.7717 35.1301C18.3261 36.3019 17.5798 37.2761 16.6478 37.9984C16.5948 38.0424 16.5394 38.0839 16.4854 38.126C16.445 38.1547 16.4053 38.1836 16.365 38.2111C16.2185 38.3195 16.0706 38.4255 15.9147 38.5233C15.8427 38.5681 15.7662 38.6074 15.6926 38.6501C15.0138 39.1223 14.4759 39.808 14.2015 40.6552C14.1691 40.7566 14.1439 40.8584 14.1199 40.9602C9.16716 39.3014 4.83184 35.78 2.26692 30.7663C-2.26882 21.9001 0.232284 11.3122 7.71377 5.35656C7.78522 5.83501 7.93016 6.31067 8.16331 6.76622C9.31457 9.01668 12.0723 9.91558 14.3228 8.77344C16.5728 7.63162 17.4632 4.88142 16.3119 2.63098C16.0938 2.20469 15.8183 1.82746 15.4997 1.50317C16.4047 1.27404 17.3164 1.10525 18.2304 1.0022C18.2815 1.33225 18.373 1.65414 18.5038 1.95901C18.5029 1.96181 18.5032 1.96112 18.5027 1.96485C19.134 3.40705 19.2669 5.07223 18.7449 6.68404C18.1586 8.49403 16.8669 9.87384 15.2732 10.6312L15.2751 10.6348C13.9108 11.1931 12.7924 12.321 12.3026 13.8321C11.4183 16.5622 12.9207 19.4988 15.658 20.3911C17.1733 20.8845 18.7469 20.6463 20.002 19.8747L20.0041 19.8789C21.5563 19.0402 23.4361 18.8101 25.2509 19.4016C26.867 19.9283 28.1415 21.0142 28.9422 22.3711C28.9452 22.3724 28.9445 22.3722 28.9473 22.3731C29.4209 23.1628 30.1677 23.7927 31.112 24.1005C33.1847 24.7761 35.4078 23.648 36.0768 21.5809C36.7469 19.5136 35.6096 17.2905 33.5362 16.6147C32.5931 16.3068 31.6189 16.3767 30.7734 16.7361C30.7706 16.7351 30.7714 16.7354 30.7674 16.7345C30.7245 16.7515 30.682 16.7679 30.6387 16.784C29.2259 17.3627 27.6109 17.472 26.0417 16.9602C25.9986 16.9469 25.9592 16.9271 25.9173 16.9126C24.553 16.4889 23.3119 15.6718 22.3819 14.5165C22.0721 14.132 21.7958 13.7107 21.562 13.2538C21.494 13.1208 21.4395 12.9846 21.3805 12.8498C20.5616 10.9812 20.5841 8.94016 21.3091 7.17158C21.7547 5.9998 22.5006 5.02578 23.4322 4.30292C23.4855 4.25947 23.541 4.21784 23.5954 4.17558C23.6351 4.14668 23.6747 4.11779 23.7149 4.08975C23.8617 3.98188 24.0102 3.87614 24.1662 3.77823C24.2374 3.73329 24.3138 3.69389 24.3875 3.65127C25.0668 3.1789 25.6046 2.49312 25.8785 1.64615C25.8856 1.62443 25.8898 1.60295 25.8959 1.5817C31.3506 3.04544 36.1926 6.72267 38.9653 12.1427C43.3747 20.762 41.1306 31.0052 34.1296 37.0408C34.0309 36.6453 33.8909 36.2549 33.6974 35.8765C32.3269 33.1974 29.0449 32.1277 26.3667 33.4868V33.4868Z" fill="#F7FF62"/>
<path d="M61.131 33.264C59.415 33.264 57.908 32.934 56.61 32.274C55.312 31.592 54.311 30.646 53.607 29.436C52.903 28.226 52.551 26.829 52.551 25.245V17.622C52.551 16.038 52.903 14.641 53.607 13.431C54.311 12.221 55.312 11.286 56.61 10.626C57.908 9.966 59.415 9.636 61.131 9.636C62.825 9.636 64.31 9.955 65.586 10.593C66.884 11.209 67.885 12.1 68.589 13.266C69.315 14.41 69.678 15.741 69.678 17.259C69.678 17.457 69.546 17.578 69.282 17.622L65.421 17.853H65.355C65.135 17.853 65.025 17.732 65.025 17.49C65.025 16.324 64.662 15.389 63.936 14.685C63.232 13.981 62.297 13.629 61.131 13.629C59.943 13.629 58.986 13.981 58.26 14.685C57.556 15.389 57.204 16.324 57.204 17.49V25.443C57.204 26.587 57.556 27.511 58.26 28.215C58.986 28.919 59.943 29.271 61.131 29.271C62.297 29.271 63.232 28.919 63.936 28.215C64.662 27.511 65.025 26.587 65.025 25.443C65.025 25.201 65.157 25.08 65.421 25.08L69.282 25.245C69.392 25.245 69.48 25.278 69.546 25.344C69.634 25.41 69.678 25.487 69.678 25.575C69.678 27.093 69.315 28.435 68.589 29.601C67.885 30.767 66.884 31.669 65.586 32.307C64.31 32.945 62.825 33.264 61.131 33.264ZM80.2841 33.264C78.4361 33.264 76.8521 32.78 75.5321 31.812C74.2121 30.844 73.3101 29.524 72.8261 27.852C72.5181 26.818 72.3641 25.696 72.3641 24.486C72.3641 23.188 72.5181 22.022 72.8261 20.988C73.3321 19.36 74.2451 18.084 75.5651 17.16C76.8851 16.236 78.4691 15.774 80.3171 15.774C82.1211 15.774 83.6611 16.236 84.9371 17.16C86.2131 18.062 87.1151 19.327 87.6431 20.955C87.9951 22.055 88.1711 23.21 88.1711 24.42C88.1711 25.608 88.0171 26.719 87.7091 27.753C87.2251 29.469 86.3231 30.822 85.0031 31.812C83.7051 32.78 82.1321 33.264 80.2841 33.264ZM80.2841 29.271C81.0101 29.271 81.6261 29.051 82.1321 28.611C82.6381 28.171 83.0011 27.566 83.2211 26.796C83.3971 26.092 83.4851 25.322 83.4851 24.486C83.4851 23.562 83.3971 22.781 83.2211 22.143C82.9791 21.395 82.6051 20.812 82.0991 20.394C81.5931 19.976 80.9771 19.767 80.2511 19.767C79.5031 19.767 78.8761 19.976 78.3701 20.394C77.8861 20.812 77.5341 21.395 77.3141 22.143C77.1381 22.671 77.0501 23.452 77.0501 24.486C77.0501 25.476 77.1271 26.246 77.2811 26.796C77.5011 27.566 77.8641 28.171 78.3701 28.611C78.8981 29.051 79.5361 29.271 80.2841 29.271ZM91.5583 33C91.4483 33 91.3493 32.967 91.2613 32.901C91.1953 32.813 91.1623 32.714 91.1623 32.604V10.296C91.1623 10.186 91.1953 10.098 91.2613 10.032C91.3493 9.944 91.4483 9.9 91.5583 9.9H95.4193C95.5293 9.9 95.6173 9.944 95.6833 10.032C95.7713 10.098 95.8153 10.186 95.8153 10.296V32.604C95.8153 32.714 95.7713 32.813 95.6833 32.901C95.6173 32.967 95.5293 33 95.4193 33H91.5583ZM99.6149 33C99.5049 33 99.4059 32.967 99.3179 32.901C99.2519 32.813 99.2189 32.714 99.2189 32.604V10.296C99.2189 10.186 99.2519 10.098 99.3179 10.032C99.4059 9.944 99.5049 9.9 99.6149 9.9H103.476C103.586 9.9 103.674 9.944 103.74 10.032C103.828 10.098 103.872 10.186 103.872 10.296V32.604C103.872 32.714 103.828 32.813 103.74 32.901C103.674 32.967 103.586 33 103.476 33H99.6149ZM114.041 15.774C115.471 15.774 116.747 16.027 117.869 16.533C118.991 17.017 119.86 17.688 120.476 18.546C121.114 19.404 121.433 20.361 121.433 21.417V32.604C121.433 32.714 121.389 32.813 121.301 32.901C121.235 32.967 121.147 33 121.037 33H117.176C117.066 33 116.967 32.967 116.879 32.901C116.813 32.813 116.78 32.714 116.78 32.604V31.515C116.78 31.449 116.758 31.405 116.714 31.383C116.67 31.361 116.626 31.383 116.582 31.449C115.658 32.659 114.173 33.264 112.127 33.264C110.411 33.264 109.025 32.846 107.969 32.01C106.913 31.174 106.385 29.942 106.385 28.314C106.385 26.62 106.979 25.311 108.167 24.387C109.355 23.441 111.049 22.968 113.249 22.968H116.615C116.725 22.968 116.78 22.913 116.78 22.803V22.077C116.78 21.351 116.56 20.79 116.12 20.394C115.68 19.976 115.02 19.767 114.14 19.767C113.458 19.767 112.886 19.888 112.424 20.13C111.984 20.372 111.698 20.713 111.566 21.153C111.5 21.395 111.357 21.505 111.137 21.483L107.144 20.955C106.88 20.911 106.759 20.812 106.781 20.658C106.869 19.734 107.232 18.898 107.87 18.15C108.53 17.402 109.388 16.819 110.444 16.401C111.522 15.983 112.721 15.774 114.041 15.774ZM113.381 29.799C114.327 29.799 115.13 29.546 115.79 29.04C116.45 28.534 116.78 27.885 116.78 27.093V25.905C116.78 25.795 116.725 25.74 116.615 25.74H114.239C113.249 25.74 112.468 25.927 111.896 26.301C111.346 26.675 111.071 27.203 111.071 27.885C111.071 28.479 111.28 28.952 111.698 29.304C112.116 29.634 112.677 29.799 113.381 29.799ZM139.725 20.361C140.143 21.505 140.352 22.869 140.352 24.453C140.352 25.971 140.165 27.302 139.791 28.446C139.285 29.942 138.471 31.119 137.349 31.977C136.249 32.835 134.94 33.264 133.422 33.264C131.816 33.264 130.551 32.659 129.627 31.449C129.583 31.405 129.539 31.394 129.495 31.416C129.451 31.416 129.429 31.449 129.429 31.515V32.604C129.429 32.714 129.385 32.813 129.297 32.901C129.231 32.967 129.143 33 129.033 33H125.172C125.062 33 124.963 32.967 124.875 32.901C124.809 32.813 124.776 32.714 124.776 32.604V10.296C124.776 10.186 124.809 10.098 124.875 10.032C124.963 9.944 125.062 9.9 125.172 9.9H129.033C129.143 9.9 129.231 9.944 129.297 10.032C129.385 10.098 129.429 10.186 129.429 10.296V17.358C129.429 17.424 129.451 17.468 129.495 17.49C129.539 17.512 129.583 17.49 129.627 17.424C130.485 16.324 131.706 15.774 133.29 15.774C134.896 15.774 136.238 16.192 137.316 17.028C138.416 17.842 139.219 18.953 139.725 20.361ZM134.841 27.852C135.303 27.016 135.534 25.916 135.534 24.552C135.534 23.034 135.27 21.868 134.742 21.054C134.214 20.196 133.433 19.767 132.399 19.767C131.431 19.767 130.694 20.196 130.188 21.054C129.704 21.89 129.462 23.045 129.462 24.519C129.462 25.993 129.682 27.104 130.122 27.852C130.65 28.798 131.42 29.271 132.432 29.271C133.51 29.271 134.313 28.798 134.841 27.852Z" fill="white"/>
</svg>
