<?xml version="1.0" encoding="UTF-8"?>
<svg id="Layer_1" data-name="Layer 1" xmlns="http://www.w3.org/2000/svg" version="1.1" viewBox="0 0 143 42">
  <defs>
    <style>
      .cls-1 {
        font-family: Frogie-Regular, Frogie;
        font-size: 11.9px;
      }

      .cls-1, .cls-2 {
        isolation: isolate;
      }

      .cls-1, .cls-3 {
        fill: #212529;
      }

      .cls-4 {
        fill: #ff4530;
      }

      .cls-4, .cls-5, .cls-6, .cls-7, .cls-8, .cls-3, .cls-9, .cls-10 {
        stroke-width: 0px;
      }

      .cls-5 {
        fill: #000;
      }

      .cls-6 {
        fill: #4c71fe;
      }

      .cls-7 {
        fill: #ffd302;
      }

      .cls-8 {
        fill: #02aa79;
      }

      .cls-9 {
        fill: #fff;
      }

      .cls-10 {
        fill: #e2e0d5;
      }
    </style>
  </defs>
  <g class="cls-2">
    <text class="cls-1" transform="translate(67 20.7)"><tspan x="0" y="0">DEUTSCHE</tspan></text>
    <text class="cls-1" transform="translate(67 31.4)"><tspan x="0" y="0">WOCHE</tspan></text>
  </g>
  <g>
    <path class="cls-3" d="M107.4,22.8c-.5.2-1.2.5-1.8.8.2-.5.6-.8,1.2-.8h.6Z"/>
    <path class="cls-3" d="M109,26.6c-.3.5-.7,1.1-1.3,1.6-.5.5-1.3,1.1-2,1.5v1.3c0-.2-.2-.4-.2-.6v-6.6l.7,1.9c1.1-.7,2-1.1,2.5-1.1s.4,0,.5.2c0,0,.2.3.2.5s-.2.8-.5,1.4h0Z"/>
    <path class="cls-3" d="M112.3,23.8c-.3.4-.5.8-.5,1.4s0,.5.2.9.4.7.6,1c-.3.2-.6.5-.8.9-.3.4-.4.8-.4,1.4s0,.6.2,1c.3.6.6,1.1,1.1,1.4h0-1.4v-1.9h-2.6c.9-.8,1.5-1.6,2-2.4.5-.8.6-1.5.6-2.3s-.3-1.4-.7-1.8c-.2-.2-.5-.4-.7-.5h3.7c0,0-.2,0-.3,0-.5.2-.8.5-1.1.8h0Z"/>
    <path class="cls-3" d="M113.9,25.5v-.3c0-.2,0-.4.2-.5,0,0,.2-.2.4-.3h.4c.2,0,.4,0,.5.2.2,0,.2.3.2.5s0,.5-.2.6c0,.2-.3.3-.5.4h-.2c-.2,0-.3,0-.5,0,0,0-.2-.3-.3-.5h0Z"/>
    <path class="cls-3" d="M115.3,28.2c.2.2.3.4.3.6s0,0,0,.2c0,.3-.2.5-.3.6-.2.2-.3.3-.5.4h-.3c-.2,0-.4,0-.5-.2-.2,0-.3-.3-.3-.5v-.3c0-.3,0-.5.2-.5,0-.2.3-.3.4-.3h.5c.3,0,.5,0,.6.2l-.2-.2Z"/>
    <path class="cls-3" d="M117.6,24v3.5c-.2-.4-.5-.6-.9-.9.5-.5.9-1.2.9-1.9s0-.9-.4-1.2c-.3-.4-.5-.5-.9-.7h0,.2c.6,0,1.2.5,1.2,1.2Z"/>
    <path class="cls-3" d="M117.2,30.7c.2-.2.3-.3.4-.5v.3c0,.6-.5,1.2-1.2,1.2h-.5c.5-.3,1-.5,1.4-1h0Z"/>
  </g>
  <g>
    <path class="cls-10" d="M54.6,26.2v2.1h1.5s0-.5,0-.5c0,0,0,0-.2,0h-.2v-1.5h.4v1.4c0,0,.2,0,.3,0,.2.2,0,.6,0,.6h1.2s.3-.8-.5-.7v-1.4h2.9v-8.2h-4.1c2.3,0,4.1-1.8,4.1-4.1h0c0-2.3-1.8-4.1-4.1-4.1h0c-2.3,0-4.1,1.8-4.1,4.1h0c0,2.3,1.8,4.1,4.1,4.1h-4.2v8.2h3.1,0Z"/>
    <path class="cls-10" d="M47.4,27.8s0,0-.2,0h-.2l.3-1.5h.4l-.3,1.5c0,0,.2,0,.3,0,.2.2,0,.5,0,.5h1.2s.3-.7-.5-.6l.3-1.6h0c1.7-.5,3-2.1,3-3.9h0c0-2.3-1.8-4.1-4.1-4.1h4.2v-8.2h-8.2v8.2h4c-2.3,0-4.1,1.8-4.1,4.1h0c0,1.4.6,2.5,1.6,3.3h0v.4h0v.2h0c0,0,0,0,0,0h0v-.2h0c.2,0,.5,0,.6.2l-.5,2.2h1.6s0-.4,0-.5h.5Z"/>
    <polygon class="cls-10" points="47.3 30.1 46.3 29.4 45.5 30.2 44.6 29.4 43.7 30.1 44.7 31.2 43.7 32.3 44.7 33.1 45.4 31.8 46.4 33 47.3 32.2 46.3 31.1 47.3 30.1"/>
    <polygon class="cls-10" points="51 30.1 50.1 29.4 49.2 30.2 48.4 29.4 47.4 30.1 48.4 31.2 47.5 32.3 48.4 33.1 49.2 31.8 50.2 33 51 32.2 50 31.1 51 30.1"/>
    <polygon class="cls-10" points="52.9 30.8 52.2 29.4 51.1 30.1 52.8 33.2 54.7 30 53.6 29.4 52.9 30.8"/>
    <polygon class="cls-10" points="55 33 56.1 32.8 56.2 29.4 55 29.5 55 33"/>
    <polygon class="cls-10" points="56.9 33 58 32.8 58.1 29.4 56.9 29.5 56.9 33"/>
    <polygon class="cls-10" points="58.8 29.5 58.8 33 59.9 32.8 60 29.4 58.8 29.5"/>
  </g>
  <g>
    <rect class="cls-3" x="42" y="9.4" width="8.2" height="8.2"/>
    <path class="cls-6" d="M46,17.6h0c2.3,0,4.1,1.8,4.1,4.1h0c0,2.3-1.8,4.1-4.1,4.1h0c-2.3,0-4.1-1.8-4.1-4.1h0c0-2.3,1.8-4.1,4.1-4.1Z"/>
    <rect class="cls-7" x="50.2" y="17.6" width="8.2" height="8.2"/>
    <path class="cls-8" d="M44.3,11.3c.7-.2,1.5-.3,2.2-.4h.9c.3,0,.5.2.6.4s.4.4.5.6.2.5.2.8,0,.5,0,.9c0,.3-.2.6-.4.9s-.4.5-.6.8c-.3.3-.5.5-.9.6-.2,0-.3,0-.5,0h-1.6v-4.7h-.3ZM45.8,14.6c.3,0,.5,0,.5-.3.2,0,.3-.2.4-.4,0,0,0-.3.2-.4v-.3h0v-.5c0,0,0-.2-.2-.3h-.3c0,0-.3,0-.5.3v1.7h-.2Z"/>
    <path class="cls-4" d="M54.3,9.4h0c2.3,0,4.1,1.8,4.1,4.1h0c0,2.3-1.8,4.1-4.1,4.1h0c-2.3,0-4.1-1.8-4.1-4.1h0c0-2.3,1.8-4.1,4.1-4.1Z"/>
    <path class="cls-9" d="M51.6,12l1.4-.6.5,1.6.9-1.4.7,1.4.6-1.8,1.2.8-1.3,3.7-1.3-1.3-1.3,1.6s-1.5-4.1-1.5-4.1Z"/>
    <path class="cls-5" d="M46.1,21.2c.2,0,.2-.3,0-.3s-.2.3,0,.3h0Z"/>
    <path class="cls-5" d="M47.8,21.3c.2,0,.2-.3,0-.3s-.2.3,0,.3h0Z"/>
    <path class="cls-5" d="M46.1,21.8c.2.3.5.4.8.4s.6-.2.9-.5,0,0,0,0c-.3.2-.5.5-.8.5s-.5-.2-.7-.4,0,0,0,0h-.2Z"/>
    <path class="cls-6" d="M43.4,25.3h0v.2h0v.2h0c0,0,0,0,0,0h0v-.3h0v-.2h0v-.2h0v-.4h0v-.3h0v-.3c0,0,0,0,0,0h-.7v1.3l-.2.3"/>
    <g>
      <path class="cls-5" d="M43.8,25.1s0,.2-.2.3,0,0-.2,0,0,0,0,0c0,0,0-.2,0-.2s0-.2,0-.3v-1.2c0-.4,0,0,0,0v.8c0,.3,0,.5,0,.7s0,.4,0,.4.3-.2.4-.4,0,0,0,0h0Z"/>
      <path class="cls-5" d="M44.1,25.3c0,0,0,.3,0,.4s0,0,0,0,0,0,0-.2,0,0,0,0,0,.2,0,.2h.2c0,0,.2-.3.2-.5s0,0,0,0h-.3Z"/>
      <path class="cls-5" d="M44,25.5c0,0,0,.3.2.2s0,0,0,0h0v-.3c0,0,0,0,0,0h0c0,.2,0,0,0,0h-.3Z"/>
      <path class="cls-5" d="M44.3,25.2s0,.2.2.2h.2c.2,0,0-.3,0-.4s0-.2-.2-.2,0-.3,0-.4v-.6c0-.2,0,0,0,0v1c0,0,.2.3.2.4h0c0,0,0,0,0,0,0,0,0,0,0-.2s0,0,0,0h-.2Z"/>
    </g>
    <g>
      <path class="cls-5" d="M49.7,23.4c-.3-.4-.6-.5-1.1-.5s0,0-.2,0,0,0-.2,0,0,0-.2,0,0,0,0,0,0,.2,0,.3h-.4c0,0-.2,0-.2.2,0,.2.2.3.3.2s0,0,0,0h0,0s.2,0,.3,0,0,0,0,0c0,0-.2-.2,0-.2s0,0,0,0c0,0,0,0,.2,0h.5c.3,0,.6,0,.8.4s0,0,0,0h0v-.4Z"/>
      <path class="cls-5" d="M48.1,23.4c0,0-.3,0-.3.2v.2c0,0,0,0,.2,0h.2c0,0,0,0,0,0h0c0,0,0,0,0,0h0s0,0,0-.2,0,0,.2,0,0,0,0,0h0l-.3-.2Z"/>
      <path class="cls-5" d="M48.1,23.6c0,0-.2.3,0,.4s0,0,.2,0,.2,0,.2-.2.2,0,.3-.2.2,0,.3,0c.2,0,.3.3.4.4s0,0,0,0c0,0-.2-.3-.3-.4s-.3-.2-.4-.2-.3.2-.4.3,0,0-.2,0,0,0,0,0c0,0,0-.2,0-.2s0,0,0,0h0v.2Z"/>
    </g>
    <g>
      <path class="cls-5" d="M55.8,23c0,.4-.4.6-.6.9s-.3.2-.5.3-.4,0-.5.2,0,.3,0,.3c.2,0,.3,0,.5-.2s.2,0,.2,0v.2h-.3c0,0-.3.2-.4.3s0,.3.2.3.3-.2.4-.4,0,0,0,0c0,0,0,.2-.2.3,0,0-.4,0-.3-.2s.2-.2.3-.2h.3c.3,0,.3-.4,0-.5s-.3,0-.4,0,0,0,0,0h0s.2,0,.3,0c.3,0,.5-.3.7-.5s.5-.5.5-.8,0,0,0,0h0Z"/>
      <path class="cls-5" d="M55.1,24.9c0,0,0,.2-.2.3s0,0-.2,0,0,0,0,0,0,0,0,0h0s0,0,.2,0h.2c0,0,.2-.2.3-.4s0,0,0,0h-.2Z"/>
      <path class="cls-5" d="M55,25.2c0,.2.3,0,.4,0,.2-.2.3-.4.4-.5.3-.5.5-.8.9-1.2s0,0,0,0c-.3.3-.5.5-.7.9s-.2.4-.3.5,0,.2-.2.2-.3.3-.3,0,0,0,0,0h0l-.2.2Z"/>
      <path class="cls-5" d="M54.4,24.2c-.5-.2-1-.5-1.3-.9s0,0,0,0c.3.5.8.7,1.4.9s0,0,0,0h0Z"/>
      <path class="cls-5" d="M54.7,25.3c-.5.2-.8-.3-1.1-.5s-.6-.5-1-.7,0,0,0,0c.4.3.7.5,1.1.8s.6.5,1,.5,0,0,0,0h0Z"/>
    </g>
    <path class="cls-5" d="M53.1,21.7c.3.4.8.5,1.3.5s.9-.3,1.2-.6,0,0,0,0c-.3.4-.6.5-1.1.6s-1,0-1.3-.4,0,0,0,0h0Z"/>
    <path class="cls-5" d="M53.4,21.3c.2,0,.2-.2,0-.2s-.2.2,0,.2h0Z"/>
    <path class="cls-5" d="M55.1,21.2c.2,0,.2-.3,0-.3s-.2.3,0,.3h0Z"/>
    <g>
      <path class="cls-6" d="M46.1,27.9h-.5l.2-.6c0,0,.2,0,.2,0,0,.2,0,.5,0,.5h0Z"/>
      <path class="cls-6" d="M47.3,27.9h-1.2s0-.4,0-.5c0,0-.2,0-.3,0l.3-1.5h1l-.3,1.6c.8,0,.5.6.5.6h0Z"/>
      <path class="cls-6" d="M46.1,27.9h-1.6l.5-2.4h.9c0,0-.4,1.7-.4,1.7h.2c0,0,.2,0,.2,0,0,.2,0,.5,0,.5h.2Z"/>
    </g>
    <g>
      <path class="cls-7" d="M56,27.9h-1.2s0-.5,0-.6c0,0-.2,0-.3,0v-1.4h1v1.4c.8,0,.5.8.5.8h0Z"/>
      <path class="cls-7" d="M54.7,27.9h-1.5v-2.2h1v1.5h.2c0,0,.2,0,.2,0,0,.2,0,.5,0,.6h.2Z"/>
    </g>
    <g>
      <path class="cls-3" d="M43.3,28.9l.8.8.8-.8.9.7-1,1,1,1.1-.8.9-1-1.2-.7,1.3-1-.8,1-1.1-1-1.1.9-.7h0Z"/>
      <path class="cls-3" d="M47.1,28.9l.8.8.8-.8.9.7-1,1,1,1.1-.8.9-1-1.2-.7,1.3-1-.8,1-1.1-1-1.1.9-.7h0Z"/>
      <path class="cls-4" d="M50.9,28.9l.6,1.5.7-1.5,1.1.6-1.9,3.2-1.7-3.1s1.2-.7,1.2-.7Z"/>
      <path class="cls-4" d="M54.9,29l-.2,3.4h-1.1c0,0,0-3.3,0-3.3,0,0,1.3-.2,1.3-.2Z"/>
      <path class="cls-7" d="M56.8,29l-.2,3.4h-1.1c0,0,0-3.3,0-3.3,0,0,1.3-.2,1.3-.2Z"/>
      <path class="cls-7" d="M58.7,29l-.2,3.4h-1.1c0,0,0-3.3,0-3.3,0,0,1.3-.2,1.3-.2Z"/>
    </g>
  </g>
</svg>