<svg width="31" height="30" viewBox="0 0 31 30" fill="none" xmlns="http://www.w3.org/2000/svg">
<path d="M25.5 15.375C25.5 20.9669 20.9669 25.5 15.375 25.5C9.78313 25.5 5.25 20.9669 5.25 15.375C5.25 9.78313 9.78313 5.25 15.375 5.25C20.9669 5.25 25.5 9.78313 25.5 15.375Z" fill="white"/>
<path fill-rule="evenodd" clip-rule="evenodd" d="M26.25 15.375C26.25 21.3811 21.3811 26.25 15.375 26.25C9.3689 26.25 4.5 21.3811 4.5 15.375C4.5 9.3689 9.3689 4.5 15.375 4.5C21.3811 4.5 26.25 9.3689 26.25 15.375ZM15.375 25.5C20.9669 25.5 25.5 20.9669 25.5 15.375C25.5 9.78313 20.9669 5.25 15.375 5.25C9.78313 5.25 5.25 9.78313 5.25 15.375C5.25 20.9669 9.78313 25.5 15.375 25.5Z" fill="#F7FF62"/>
<path fill-rule="evenodd" clip-rule="evenodd" d="M14.3039 24.8625C19.7961 24.8625 24.2484 20.3254 24.2484 14.7286C24.2484 11.0127 22.2858 7.76394 19.3593 6C22.9642 7.52202 25.5 11.1423 25.5 15.3661C25.5 20.9629 21.0477 25.5 15.5554 25.5C13.7097 25.5 11.9814 24.9876 10.5 24.0947C11.6718 24.5894 12.9565 24.8625 14.3039 24.8625Z" fill="black"/>
<path fill-rule="evenodd" clip-rule="evenodd" d="M3.67976 8.28794C4.69247 11.6005 6.80276 15.5637 9.75425 19.4141C12.7057 23.2645 15.9742 26.3182 18.8926 28.134C20.3497 29.0407 21.7493 29.6575 22.9998 29.8933C24.2494 30.1289 25.4261 29.9945 26.3268 29.2872C27.2276 28.5799 27.6481 27.4597 27.7332 26.1759C27.8186 24.8913 27.576 23.3658 27.0701 21.7119C26.0575 18.3995 23.9473 14.4362 20.9958 10.5858C18.0443 6.73543 14.7758 3.68174 11.8574 1.86582C10.4003 0.959163 9.00066 0.342401 7.75021 0.106719C6.50054 -0.128836 5.32391 0.00532771 4.42323 0.712663C3.52255 1.42 3.10182 2.54029 3.01673 3.82403C2.93161 5.1086 3.17413 6.63407 3.67976 8.28794ZM10.3052 18.9909C4.52923 11.4379 2.11673 3.52825 4.9167 1.32413C7.71667 -0.879998 14.6688 3.45613 20.4448 11.0091C26.2208 18.5621 28.6333 26.4718 25.8333 28.6759C23.0333 30.88 16.0812 26.5439 10.3052 18.9909Z" fill="black"/>
<path fill-rule="evenodd" clip-rule="evenodd" d="M28.2496 11.6028C26.5033 14.6428 23.5305 18.0593 19.7616 21.1684C15.9927 24.2777 12.0756 26.5453 8.76262 27.6788C7.10962 28.2447 5.55693 28.5452 4.22264 28.4945C2.88965 28.4437 1.65901 28.0327 0.849947 27.0484C0.0408827 26.064 -0.125578 24.7751 0.0805055 23.4547C0.286748 22.133 0.879178 20.664 1.7504 19.1472C3.49658 16.1072 6.4695 12.6907 10.2384 9.58155C14.0072 6.47232 17.9243 4.20468 21.2373 3.07103C22.8903 2.50544 24.443 2.20476 25.7773 2.25554C27.1103 2.30628 28.341 2.71724 29.1501 3.70161C29.9591 4.68602 30.1255 5.97488 29.9196 7.29532C29.7133 8.61697 29.1207 10.086 28.2496 11.6028ZM18.7288 19.9845C26.0466 13.9576 30.1417 6.84029 27.8755 4.08741C25.609 1.33455 17.8393 3.98863 10.5213 10.0155C3.20328 16.0423 -0.891809 23.1597 1.37463 25.9126C3.64106 28.6655 11.4108 26.0113 18.7288 19.9845Z" fill="black"/>
<path d="M30.75 7.87501C30.75 8.49634 30.2461 9 29.625 9C29.0039 9 28.5 8.49634 28.5 7.87501C28.5 7.25369 29.0039 6.75 29.625 6.75C30.2461 6.75 30.75 7.25369 30.75 7.87501Z" fill="black"/>
<path d="M12.75 9.375C12.75 9.99633 12.2463 10.5 11.625 10.5C11.0037 10.5 10.5 9.99633 10.5 9.375C10.5 8.75367 11.0037 8.25 11.625 8.25C12.2463 8.25 12.75 8.75367 12.75 9.375Z" fill="black"/>
<path d="M12.75 25.875C12.75 26.9103 11.9105 27.75 10.875 27.75C9.83946 27.75 9 26.9103 9 25.875C9 24.8395 9.83946 24 10.875 24C11.9105 24 12.75 24.8395 12.75 25.875Z" fill="black"/>
</svg>
