<svg width="53" height="32" viewBox="0 0 53 32" fill="none" xmlns="http://www.w3.org/2000/svg">
<path fill-rule="evenodd" clip-rule="evenodd" d="M13.4239 17.809L24.9547 22.2291C25.8527 22.5734 26.7782 22.1763 27.6749 21.8286C31.4085 20.3652 39.0027 17.4436 39.0027 17.4436L39.0026 26.2549C39.0027 26.2628 39.0027 26.2707 39.0027 26.2786C39.0027 28.8662 33.8869 30.5985 26.9441 30.9639C20.0013 31.3293 13.4239 28.8662 13.4239 26.2786C13.4239 26.276 13.4238 26.2734 13.4238 26.2707C13.4238 26.2654 13.4237 26.2188 13.4238 26.2135L13.4239 17.809Z" stroke="#F7FF62"/>
<path fill-rule="evenodd" clip-rule="evenodd" d="M13.4239 17.8091L24.6253 21.9836C25.4976 22.3087 26.4595 22.3069 27.3306 21.9785L38.2718 17.8535L38.2717 25.7857C38.2718 25.7932 38.2719 25.8007 38.2719 25.8082C38.2719 28.252 32.7094 30.2331 25.8479 30.2331C18.9863 30.2331 13.4239 28.252 13.4239 25.8082C13.4239 25.8057 13.4238 25.8032 13.4238 25.8007C13.4238 25.7957 13.4238 25.7907 13.4239 25.7857V17.8091Z" stroke="#1F1D0D" stroke-width="1.5"/>
<path d="M48.6329 23.4742C48.9816 22.828 49.3759 21.9887 49.7099 21.2425C49.9698 20.6615 50.7096 20.5335 51.0275 21.0841C51.5852 22.0483 51.9527 23.1987 52.1353 23.9652C52.1934 24.2087 52.1424 24.4727 51.9567 24.6392C51.1704 25.3449 49.9559 25.1558 49.0129 24.7949C48.507 24.6013 48.3739 23.9536 48.6329 23.4742Z" fill="white"/>
<path fill-rule="evenodd" clip-rule="evenodd" d="M50.047 20.7345C49.9416 20.7461 49.8121 20.8084 49.7388 20.938C49.3839 21.567 48.9609 22.2813 48.5832 22.8359C48.5033 22.9532 48.4858 23.0907 48.5227 23.2029C48.5582 23.3102 48.6347 23.3784 48.7382 23.4098C49.2052 23.5515 49.7185 23.6525 50.1944 23.6555C50.6671 23.6585 51.0698 23.5656 51.3727 23.3501C51.4068 23.326 51.4479 23.2612 51.4162 23.1556C51.2286 22.5328 50.8533 21.606 50.2951 20.8401C50.2275 20.7473 50.1382 20.7244 50.047 20.7345ZM49.9659 20.0114C50.5211 19.9571 51.0982 20.1248 51.4276 20.5255L50.9274 20.7323M50.6967 20.0015C50.0801 20.0566 49.5192 20.3246 49.2351 20.7323L50.6967 20.0015ZM51.0092 20.7323C51.5759 21.6777 51.943 22.7913 52.1249 23.5274C52.208 23.8635 52.1473 24.2833 51.8202 24.5663C51.3375 24.9841 50.7386 25.1216 50.1663 25.1171C49.597 25.1127 49.0239 24.9688 48.5395 24.7901C47.7311 24.4916 47.6152 23.5616 47.947 22.9679C48.2762 22.3801 48.6516 21.61 48.9722 20.9185" fill="black"/>
<path fill-rule="evenodd" clip-rule="evenodd" d="M49.4269 20.1183C49.6504 19.9376 49.9803 19.9701 50.1636 20.1909C50.3432 20.4075 50.4353 20.7258 50.4934 20.9906C50.5568 21.2827 50.6008 21.6242 50.6311 21.9676C50.6919 22.656 50.7023 23.401 50.6934 23.8791C50.6882 24.1644 50.4494 24.3915 50.1604 24.3863C49.8714 24.3812 49.641 24.1457 49.6468 23.8604C49.6546 23.4075 49.6447 22.7002 49.5881 22.0572C49.5593 21.7349 49.5206 21.441 49.4698 21.2083C49.4441 21.092 49.418 21 49.3923 20.9318C49.3682 20.8675 49.352 20.8442 49.352 20.844C49.1698 20.6245 49.2028 20.299 49.4269 20.1183Z" fill="black"/>
<path fill-rule="evenodd" clip-rule="evenodd" d="M49.9652 10.5007C50.3686 10.5007 50.696 10.8261 50.696 11.2274V19.2748C50.696 19.6761 50.3686 20.0015 49.9652 20.0015C49.5613 20.0015 49.2344 19.6761 49.2344 19.2748V11.2274C49.2344 10.8261 49.5613 10.5007 49.9652 10.5007Z" fill="black"/>
<path d="M52.158 19.6361C52.158 20.6452 51.3401 21.4632 50.331 21.4632C49.3218 21.4632 48.5039 20.6452 48.5039 19.6361C48.5039 18.6271 49.3218 17.8091 50.331 17.8091C51.3401 17.8091 52.158 18.6271 52.158 19.6361Z" fill="black"/>
<path d="M24.4873 1.29095L1.31771 10.6611C0.889502 10.8343 0.895621 11.4516 1.32713 11.6161L24.563 20.4709C25.4825 20.8213 26.4964 20.8193 27.4146 20.4654L50.3708 11.6154C50.8001 11.45 50.8058 10.8361 50.3803 10.6619L27.49 1.29701C26.5271 0.90311 25.4517 0.900927 24.4873 1.29095Z" stroke="#1F1D0D" stroke-width="1.5"/>
<path fill-rule="evenodd" clip-rule="evenodd" d="M44.0885 12.2941C44.1801 12.5559 44.0507 12.8456 43.7994 12.9411L27.2288 19.2399C26.9774 19.3355 26.6994 19.2007 26.6076 18.9389C26.5159 18.6771 26.6453 18.3874 26.8966 18.2919L43.4672 11.9931C43.7186 11.8976 43.9967 12.0324 44.0885 12.2941Z" fill="#1F1D0D"/>
<path fill-rule="evenodd" clip-rule="evenodd" d="M5.41485 10.8103C5.50799 10.5656 5.78935 10.44 6.04325 10.5297L11.641 12.5089C11.8949 12.5986 12.0252 12.8698 11.9321 13.1145C11.839 13.3592 11.5576 13.4848 11.3038 13.395L5.70596 11.4159C5.45206 11.3261 5.32171 11.055 5.41485 10.8103Z" fill="#1F1D0D"/>
</svg>
