<svg width="35" height="30" viewBox="0 0 35 30" fill="none" xmlns="http://www.w3.org/2000/svg">
<path d="M15.7536 9.75C18.2369 9.75 20.25 11.7408 20.25 14.1966V21.9748C20.25 24.4306 18.2369 26.4215 15.7536 26.4215H10.9278L8.09614 29.8781C7.9 30.1176 7.50852 29.9805 7.50852 29.6723V26.4215H7.49639C5.01309 26.4215 3 24.4306 3 21.9748V14.1966C3 11.7408 5.01312 9.75 7.49639 9.75H15.7536Z" fill="#F7FF62"/>
<path d="M20.1387 2.25C17.7149 2.25 15.75 4.231 15.75 6.67469V18.6583C15.75 21.102 17.7149 23.083 20.1387 23.083H25.8734L29.5261 27.6288C29.7175 27.867 30.0996 27.7306 30.0996 27.4239V23.083H30.1114C32.5351 23.083 34.5 21.102 34.5 18.6583V6.67469C34.5 4.231 32.5351 2.25 30.1114 2.25H20.1387Z" fill="#F7FF62"/>
<path fill-rule="evenodd" clip-rule="evenodd" d="M13.3705 8.25C15.9273 8.25 18 10.315 18 12.8622V20.4329C18 22.9802 15.9273 25.0451 13.3705 25.0451H8.67772L5.25839 29.25V25.0436C2.75755 24.9796 0.75 22.9398 0.75 20.4329V12.8622C0.75 10.315 2.82268 8.25 5.37948 8.25H13.3705Z" fill="white"/>
<path fill-rule="evenodd" clip-rule="evenodd" d="M8.67772 24.4453H13.3705C15.9273 24.4453 18 22.4541 18 19.9978V12.6975C18 10.2412 15.9273 8.25 13.3705 8.25H5.37944C2.82268 8.25 0.75 10.2412 0.75 12.6975V19.9978C0.75 22.4152 2.75755 24.3821 5.25839 24.4438V28.5L8.67772 24.4453ZM4.55142 25.0961C1.97591 24.7289 0 22.594 0 20.015V12.637C0 9.79992 2.39138 7.5 5.34131 7.5H13.4087C16.3586 7.5 18.75 9.79992 18.75 12.637V20.015C18.75 22.852 16.3586 25.152 13.4087 25.152H8.98943L5.73788 29.0119C5.55986 29.2235 5.26273 29.304 4.99616 29.213C4.72958 29.1223 4.55142 28.8798 4.55142 28.6077V25.0961Z" fill="black"/>
<path fill-rule="evenodd" clip-rule="evenodd" d="M1.5 13.2284C1.5 10.8931 3.42137 9 5.7915 9H13.7085C16.0787 9 18 10.8931 18 13.2284V20.5216C18 22.8569 16.0787 24.75 13.7085 24.75H8.9786C8.79631 24.75 8.64849 24.6044 8.64849 24.4248C8.64849 24.2451 8.79631 24.0995 8.9786 24.0995H13.7085C15.714 24.0995 17.3398 22.4976 17.3398 20.5216V13.2284C17.3398 11.2524 15.714 9.65053 13.7085 9.65053H5.7915C3.78602 9.65053 2.16024 11.2524 2.16024 13.2284V20.5216C2.16024 22.4976 3.78602 24.0995 5.7915 24.0995H6.11455C6.29688 24.0995 6.44469 24.2451 6.44469 24.4248C6.44469 24.6044 6.29688 24.75 6.11455 24.75H5.7915C3.42137 24.75 1.5 22.8569 1.5 20.5216V13.2284Z" fill="black"/>
<path fill-rule="evenodd" clip-rule="evenodd" d="M3.75 15.375C3.75 15.1679 3.97984 15 4.26333 15H8.48667C8.7702 15 9 15.1679 9 15.375C9 15.5821 8.7702 15.75 8.48667 15.75H4.26333C3.97984 15.75 3.75 15.5821 3.75 15.375Z" fill="black"/>
<path fill-rule="evenodd" clip-rule="evenodd" d="M3.75 12.375C3.75 12.1679 3.96982 12 4.24096 12H13.7591C14.0302 12 14.25 12.1679 14.25 12.375C14.25 12.5821 14.0302 12.75 13.7591 12.75H4.24096C3.96982 12.75 3.75 12.5821 3.75 12.375Z" fill="black"/>
<path fill-rule="evenodd" clip-rule="evenodd" d="M3.75 18.375C3.75 18.1679 3.9977 18 4.30322 18H6.19682C6.50234 18 6.75 18.1679 6.75 18.375C6.75 18.5821 6.50234 18.75 6.19682 18.75H4.30322C3.9977 18.75 3.75 18.5821 3.75 18.375Z" fill="black"/>
<path fill-rule="evenodd" clip-rule="evenodd" d="M18.0186 0.75C15.523 0.75 13.5 2.80195 13.5 5.33317V17.1255C13.5 19.6568 15.523 21.7087 18.0186 21.7087H23.6235L27.8497 27V21.7072C30.2905 21.6436 32.25 19.6167 32.25 17.1255V5.33317C32.25 2.80195 30.2269 0.75 27.7314 0.75H18.0186Z" fill="white"/>
<path fill-rule="evenodd" clip-rule="evenodd" d="M23.6235 21.7087H18.0186C15.523 21.7087 13.5 19.6568 13.5 17.1255V5.33317C13.5 2.80195 15.523 0.75 18.0186 0.75H27.7314C30.2269 0.75 32.25 2.80195 32.25 5.33317V17.1255C32.25 19.6166 30.2905 21.6436 27.8497 21.7072V27L23.6235 21.7087ZM28.5538 22.3648C31.0696 21.9877 33 19.7958 33 17.148V5.27412C33 2.36128 30.6636 0 27.782 0H17.9679C15.0861 0 12.75 2.36132 12.75 5.27412V17.148C12.75 20.0608 15.0861 22.4221 17.9679 22.4221H23.3202L27.3947 27.5057C27.5686 27.7227 27.8589 27.8054 28.1193 27.7121C28.3797 27.6189 28.5538 27.3699 28.5538 27.0907V22.3648Z" fill="black"/>
<path fill-rule="evenodd" clip-rule="evenodd" d="M13.5 5.6956C13.5 3.37842 15.3903 1.5 17.7221 1.5H27.2777C29.6095 1.5 31.5 3.37845 31.5 5.6956V16.8044C31.5 19.1216 29.6095 21 27.2777 21H27.1631C26.9838 21 26.8384 20.8555 26.8384 20.6773C26.8384 20.499 26.9838 20.3545 27.1631 20.3545H27.2777C29.2508 20.3545 30.8504 18.7651 30.8504 16.8044V5.6956C30.8504 3.73493 29.2508 2.14549 27.2777 2.14549H17.7221C15.749 2.14549 14.1495 3.73493 14.1495 5.6956V16.8044C14.1495 18.7651 15.749 20.3545 17.7221 20.3545H23.5394C23.7188 20.3545 23.8642 20.499 23.8642 20.6773C23.8642 20.8555 23.7188 21 23.5394 21H17.7221C15.3903 21 13.5 19.1216 13.5 16.8044V5.6956Z" fill="black"/>
<path fill-rule="evenodd" clip-rule="evenodd" d="M16.5 12C16.5 11.5858 16.7903 11.25 17.1485 11.25H27.8516C28.2097 11.25 28.5 11.5858 28.5 12C28.5 12.4142 28.2097 12.75 27.8516 12.75H17.1485C16.7903 12.75 16.5 12.4142 16.5 12Z" fill="black"/>
<path fill-rule="evenodd" clip-rule="evenodd" d="M16.5 9.00002C16.5 8.58578 16.7903 8.25 17.1485 8.25H27.8516C28.2097 8.25 28.5 8.58578 28.5 9.00002C28.5 9.41422 28.2097 9.75 27.8516 9.75H17.1485C16.7903 9.75 16.5 9.41422 16.5 9.00002Z" fill="black"/>
<path fill-rule="evenodd" clip-rule="evenodd" d="M16.5 5.25002C16.5 4.83578 16.7903 4.5 17.1484 4.5H27.8516C28.2097 4.5 28.5 4.83578 28.5 5.25002C28.5 5.66422 28.2097 6 27.8516 6H17.1484C16.7903 6 16.5 5.66422 16.5 5.25002Z" fill="black"/>
<path fill-rule="evenodd" clip-rule="evenodd" d="M16.5 15C16.5 14.5858 16.8064 14.25 17.1843 14.25H23.3157C23.6936 14.25 24 14.5858 24 15C24 15.4142 23.6936 15.75 23.3157 15.75H17.1843C16.8064 15.75 16.5 15.4142 16.5 15Z" fill="black"/>
</svg>
