<svg width="42" height="30" viewBox="0 0 42 30" fill="none" xmlns="http://www.w3.org/2000/svg">
<path d="M3.75 3.75046C3.75 3.33602 4.09228 3 4.51453 3H41.2355C41.6575 3 42 3.33602 42 3.75046V26.9995C42 27.414 41.6575 27.75 41.2355 27.75H4.51453C4.09228 27.75 3.75 27.414 3.75 26.9995V3.75046Z" fill="#F7FF62"/>
<path d="M0.75 1.50046C0.75 1.08598 1.09228 0.75 1.51453 0.75H38.2355C38.6575 0.75 39 1.08598 39 1.50046V24.7495C39 25.164 38.6575 25.5 38.2355 25.5H1.51453C1.09228 25.5 0.75 25.164 0.75 24.7495V1.50046Z" fill="white"/>
<path fill-rule="evenodd" clip-rule="evenodd" d="M1.52796 0H38.2221C39.0659 0 39.75 0.671974 39.75 1.50086V24.7491C39.75 25.578 39.0659 26.25 38.2221 26.25H1.52796C0.684075 26.25 0 25.578 0 24.7491V1.50086C0 0.671974 0.684075 0 1.52796 0ZM1.51453 0.75C1.09228 0.75 0.75 1.08598 0.75 1.50046V24.7495C0.75 25.164 1.09228 25.5 1.51453 25.5H38.2355C38.6575 25.5 39 25.164 39 24.7495V1.50046C39 1.08598 38.6575 0.75 38.2355 0.75H1.51453Z" fill="#1F1D0D"/>
<path fill-rule="evenodd" clip-rule="evenodd" d="M6.75 10.125C6.75 9.91789 6.91957 9.75 7.12876 9.75H32.6212C32.8304 9.75 33 9.91789 33 10.125C33 10.3321 32.8304 10.5 32.6212 10.5H7.12876C6.91957 10.5 6.75 10.3321 6.75 10.125Z" fill="black"/>
<path fill-rule="evenodd" clip-rule="evenodd" d="M15 5.625C15 5.41793 15.1664 5.25 15.3717 5.25H24.3783C24.5836 5.25 24.75 5.41793 24.75 5.625C24.75 5.83211 24.5836 6 24.3783 6H15.3717C15.1664 6 15 5.83211 15 5.625Z" fill="black"/>
<path fill-rule="evenodd" clip-rule="evenodd" d="M6.75 12.375C6.75 12.1679 6.91957 12 7.12876 12H32.6212C32.8304 12 33 12.1679 33 12.375C33 12.5821 32.8304 12.75 32.6212 12.75H7.12876C6.91957 12.75 6.75 12.5821 6.75 12.375Z" fill="black"/>
<path fill-rule="evenodd" clip-rule="evenodd" d="M6.75 14.625C6.75 14.4179 6.91957 14.25 7.12876 14.25H32.6212C32.8304 14.25 33 14.4179 33 14.625C33 14.8321 32.8304 15 32.6212 15H7.12876C6.91957 15 6.75 14.8321 6.75 14.625Z" fill="black"/>
<path fill-rule="evenodd" clip-rule="evenodd" d="M6.75 16.875C6.75 16.6679 6.91957 16.5 7.12876 16.5H32.6212C32.8304 16.5 33 16.6679 33 16.875C33 17.0821 32.8304 17.25 32.6212 17.25H7.12876C6.91957 17.25 6.75 17.0821 6.75 16.875Z" fill="black"/>
<path fill-rule="evenodd" clip-rule="evenodd" d="M6.75 19.125C6.75 18.9179 6.92086 18.75 7.13163 18.75H19.1184C19.3291 18.75 19.5 18.9179 19.5 19.125C19.5 19.3321 19.3291 19.5 19.1184 19.5H7.13163C6.92086 19.5 6.75 19.3321 6.75 19.125Z" fill="black"/>
<path d="M30.75 21.75H35.25V29.25L32.9999 27.1324L30.75 29.25V21.75Z" fill="white"/>
<path fill-rule="evenodd" clip-rule="evenodd" d="M30 21.7802C30 21.3493 30.3638 21 30.8125 21H35.1875C35.636 21 36 21.3493 36 21.7802V29.2198C36 29.5355 35.8018 29.8199 35.4983 29.9405C35.1948 30.0614 34.8452 29.9947 34.6129 29.7715L32.9999 28.2226L31.387 29.7715C31.1547 29.9947 30.8052 30.0614 30.5016 29.9405C30.198 29.8199 30 29.5355 30 29.2198V21.7802ZM32.9999 27.1324L35.25 29.25V21.75H30.75V29.25L32.9999 27.1324Z" fill="black"/>
<path d="M36 22.125C36 23.989 34.4887 25.5 32.625 25.5C30.761 25.5 29.25 23.989 29.25 22.125C29.25 20.261 30.761 18.75 32.625 18.75C34.4887 18.75 36 20.261 36 22.125Z" fill="white"/>
<path fill-rule="evenodd" clip-rule="evenodd" d="M36.75 22.125C36.75 24.394 34.9123 26.25 32.625 26.25C30.3376 26.25 28.5 24.394 28.5 22.125C28.5 19.856 30.3376 18 32.625 18C34.9123 18 36.75 19.856 36.75 22.125ZM32.625 25.5C34.4887 25.5 36 23.989 36 22.125C36 20.261 34.4887 18.75 32.625 18.75C30.761 18.75 29.25 20.261 29.25 22.125C29.25 23.989 30.761 25.5 32.625 25.5Z" fill="black"/>
<path fill-rule="evenodd" clip-rule="evenodd" d="M35.25 22.125C35.25 23.5653 34.0842 24.75 32.625 24.75C31.1658 24.75 30 23.5653 30 22.125C30 20.6846 31.1658 19.5 32.625 19.5C34.0842 19.5 35.25 20.6846 35.25 22.125ZM32.625 24C33.6605 24 34.5 23.1605 34.5 22.125C34.5 21.0895 33.6605 20.25 32.625 20.25C31.5895 20.25 30.75 21.0895 30.75 22.125C30.75 23.1605 31.5895 24 32.625 24Z" fill="black"/>
</svg>
