<svg width="240" height="148" viewBox="0 0 240 148" fill="none" xmlns="http://www.w3.org/2000/svg">
<path d="M3.65625 4.4375H0.40625C0.177734 4.4375 0 4.64062 0 4.84375V8.09375C0 8.32227 0.177734 8.5 0.40625 8.5C0.609375 8.5 0.8125 8.32227 0.8125 8.09375V5.25H3.65625C3.85938 5.25 4.0625 5.07227 4.0625 4.84375C4.0625 4.64062 3.85938 4.4375 3.65625 4.4375ZM3.65625 15H0.8125V12.1562C0.8125 11.9531 0.609375 11.75 0.40625 11.75C0.177734 11.75 0 11.9531 0 12.1562V15.4062C0 15.6348 0.177734 15.8125 0.40625 15.8125H3.65625C3.85938 15.8125 4.0625 15.6348 4.0625 15.4062C4.0625 15.2031 3.85938 15 3.65625 15ZM10.9688 11.75C10.7402 11.75 10.5625 11.9531 10.5625 12.1562V15H7.71875C7.49023 15 7.3125 15.2031 7.3125 15.4062C7.3125 15.6348 7.49023 15.8125 7.71875 15.8125H10.9688C11.1719 15.8125 11.375 15.6348 11.375 15.4062V12.1562C11.375 11.9531 11.1719 11.75 10.9688 11.75ZM10.9688 4.4375H7.71875C7.49023 4.4375 7.3125 4.64062 7.3125 4.84375C7.3125 5.07227 7.49023 5.25 7.71875 5.25H10.5625V8.09375C10.5625 8.32227 10.7402 8.5 10.9688 8.5C11.1719 8.5 11.375 8.32227 11.375 8.09375V4.84375C11.375 4.64062 11.1719 4.4375 10.9688 4.4375Z" fill="black"/>
<path d="M230.643 4.51367C230.516 4.48828 230.414 4.46289 230.312 4.46289C230.109 4.46289 229.906 4.51367 229.754 4.66602L226.326 7.71289H224.219C223.533 7.71289 223 8.24609 223 8.93164V11.3438C223 12.0293 223.533 12.5625 224.219 12.5625H226.326L229.754 15.6094C229.906 15.7363 230.109 15.8125 230.312 15.8125C230.414 15.8125 230.516 15.7871 230.643 15.7363C230.922 15.6094 231.125 15.3301 231.125 15V5.27539C231.125 4.94531 230.922 4.66602 230.643 4.51367ZM230.287 15L226.631 11.75H224.219C223.99 11.75 223.812 11.5469 223.812 11.3438V8.90625C223.812 8.67773 223.99 8.5 224.219 8.5H226.631L230.262 5.27539L230.287 15ZM236.203 4.51367C236.025 4.38672 235.771 4.4375 235.645 4.64062C235.518 4.81836 235.568 5.07227 235.771 5.19922C237.422 6.31641 238.438 8.16992 238.438 10.125C238.438 12.1055 237.422 13.959 235.771 15.0762C235.568 15.2031 235.518 15.457 235.645 15.6348C235.721 15.7617 235.848 15.8125 236 15.8125C236.076 15.8125 236.152 15.8125 236.203 15.7617C238.107 14.4922 239.25 12.3848 239.25 10.125C239.25 7.83984 238.107 5.7832 236.203 4.51367ZM234.654 6.13867C234.477 6.01172 234.223 6.0625 234.096 6.26562C233.969 6.44336 234.02 6.69727 234.197 6.82422C235.314 7.56055 236 8.80469 236 10.125C236 11.4707 235.314 12.7148 234.197 13.4512C234.02 13.5781 233.969 13.832 234.096 14.0098C234.172 14.1367 234.299 14.1875 234.426 14.1875C234.502 14.1875 234.578 14.1875 234.654 14.1367C236 13.2227 236.812 11.7246 236.812 10.125C236.812 8.52539 236 7.05273 234.654 6.13867ZM233.309 8.16992C233.131 8.04297 232.877 8.09375 232.75 8.29688C232.623 8.47461 232.674 8.72852 232.852 8.85547C233.283 9.13477 233.562 9.61719 233.562 10.125C233.562 10.6582 233.283 11.1406 232.852 11.4199C232.674 11.5469 232.623 11.8008 232.75 11.9785C232.826 12.1055 232.953 12.1562 233.08 12.1562C233.156 12.1562 233.232 12.1562 233.309 12.1055C233.969 11.6484 234.375 10.9121 234.375 10.125C234.375 9.33789 233.969 8.62695 233.309 8.16992Z" fill="black"/>
<g clip-path="url(#clip0_239_13464)">
<g filter="url(#filter0_d_239_13464)">
<circle cx="87.5" cy="136.5" r="11.5" fill="white"/>
</g>
<path d="M90.3125 135.5C90.1367 135.5 90 135.656 90 135.812V136.75C90 138.195 88.7695 139.348 87.3242 139.25C85.9961 139.172 85 138 85 136.672V135.812C85 135.656 84.8438 135.5 84.6875 135.5C84.5117 135.5 84.375 135.656 84.375 135.812V136.652C84.375 138.273 85.5664 139.699 87.1875 139.855V141.125H85.9375C85.7617 141.125 85.625 141.281 85.625 141.438C85.625 141.613 85.7617 141.75 85.9375 141.75H89.0625C89.2188 141.75 89.375 141.613 89.375 141.438C89.375 141.281 89.2188 141.125 89.0625 141.125H87.8125V139.855C89.375 139.699 90.625 138.371 90.625 136.75V135.812C90.625 135.656 90.4688 135.5 90.3125 135.5ZM87.5 138.625C88.5352 138.625 89.375 137.785 89.375 136.75V133.625C89.375 132.609 88.5352 131.75 87.5 131.75C86.4648 131.75 85.625 132.59 85.625 133.625V136.75C85.625 137.785 86.4648 138.625 87.5 138.625ZM86.25 133.625C86.25 132.941 86.7969 132.375 87.5 132.375C88.1836 132.375 88.75 132.941 88.75 133.625V136.75C88.75 137.453 88.1836 138 87.5 138C86.7969 138 86.25 137.453 86.25 136.75V133.625Z" fill="#1F1D0D"/>
</g>
<g clip-path="url(#clip1_239_13464)">
<g filter="url(#filter1_d_239_13464)">
<circle cx="120.5" cy="136.5" r="11.5" fill="white"/>
</g>
<path d="M125.648 133.703C125.453 133.605 125.199 133.605 125.004 133.742L122.992 135.148C122.855 135.246 122.816 135.441 122.914 135.598C123.012 135.734 123.207 135.754 123.363 135.656L125.375 134.25V139.25L123.363 137.844C123.207 137.746 123.012 137.785 122.914 137.922C122.816 138.078 122.855 138.273 122.992 138.371L125.004 139.777C125.121 139.855 125.238 139.875 125.375 139.875C125.473 139.875 125.57 139.855 125.648 139.816C125.863 139.699 126 139.484 126 139.25V134.25C126 134.016 125.863 133.82 125.648 133.703ZM121 133H116C115.297 133 114.75 133.566 114.75 134.25V139.25C114.75 139.953 115.297 140.5 116 140.5H121C121.684 140.5 122.25 139.953 122.25 139.25V134.25C122.25 133.566 121.684 133 121 133ZM121.625 139.25C121.625 139.602 121.332 139.875 121 139.875H116C115.648 139.875 115.375 139.602 115.375 139.25V134.25C115.375 133.918 115.648 133.625 116 133.625H121C121.332 133.625 121.625 133.918 121.625 134.25V139.25Z" fill="#1F1D0D"/>
</g>
<g clip-path="url(#clip2_239_13464)">
<g filter="url(#filter2_d_239_13464)">
<circle cx="153.5" cy="136.5" r="11.5" fill="#FF6262"/>
</g>
<path d="M151.36 132.726L152.161 134.742C152.313 135.088 152.686 135.323 153.072 135.267L154.094 135.184C154.412 136.303 154.412 137.518 154.094 138.637L153.072 138.527C152.686 138.499 152.313 138.734 152.175 139.093L151.36 141.095C151.208 141.496 151.36 141.952 151.719 142.173L153.321 143.167C153.666 143.402 154.108 143.347 154.412 143.043C157.795 139.659 157.795 134.162 154.412 130.779C154.108 130.475 153.666 130.42 153.307 130.641L151.719 131.649C151.36 131.87 151.208 132.326 151.36 132.726ZM153.652 131.179C153.749 131.11 153.887 131.11 153.984 131.207C157.119 134.342 157.105 139.466 153.97 142.601C153.873 142.697 153.749 142.711 153.652 142.642L152.05 141.648C152.036 141.634 152.009 141.634 151.995 141.62C151.926 141.551 151.912 141.427 151.94 141.316L152.741 139.328C152.796 139.217 152.893 139.148 153.017 139.162L154.274 139.286C154.426 139.3 154.564 139.217 154.605 139.065C155.075 137.684 155.075 136.137 154.591 134.742C154.564 134.604 154.426 134.522 154.274 134.535L153.017 134.66C152.893 134.673 152.796 134.604 152.741 134.494L151.94 132.505C151.898 132.381 151.926 132.243 152.05 132.174L153.652 131.179Z" fill="#1F1D0D"/>
</g>
<defs>
<filter id="filter0_d_239_13464" x="48" y="97" width="83" height="83" filterUnits="userSpaceOnUse" color-interpolation-filters="sRGB">
<feFlood flood-opacity="0" result="BackgroundImageFix"/>
<feColorMatrix in="SourceAlpha" type="matrix" values="0 0 0 0 0 0 0 0 0 0 0 0 0 0 0 0 0 0 127 0" result="hardAlpha"/>
<feOffset dx="2" dy="2"/>
<feGaussianBlur stdDeviation="15"/>
<feColorMatrix type="matrix" values="0 0 0 0 0.121569 0 0 0 0 0.113725 0 0 0 0 0.0509804 0 0 0 0.0894963 0"/>
<feBlend mode="normal" in2="BackgroundImageFix" result="effect1_dropShadow_239_13464"/>
<feBlend mode="normal" in="SourceGraphic" in2="effect1_dropShadow_239_13464" result="shape"/>
</filter>
<filter id="filter1_d_239_13464" x="81" y="97" width="83" height="83" filterUnits="userSpaceOnUse" color-interpolation-filters="sRGB">
<feFlood flood-opacity="0" result="BackgroundImageFix"/>
<feColorMatrix in="SourceAlpha" type="matrix" values="0 0 0 0 0 0 0 0 0 0 0 0 0 0 0 0 0 0 127 0" result="hardAlpha"/>
<feOffset dx="2" dy="2"/>
<feGaussianBlur stdDeviation="15"/>
<feColorMatrix type="matrix" values="0 0 0 0 0.121569 0 0 0 0 0.113725 0 0 0 0 0.0509804 0 0 0 0.0894963 0"/>
<feBlend mode="normal" in2="BackgroundImageFix" result="effect1_dropShadow_239_13464"/>
<feBlend mode="normal" in="SourceGraphic" in2="effect1_dropShadow_239_13464" result="shape"/>
</filter>
<filter id="filter2_d_239_13464" x="114" y="97" width="83" height="83" filterUnits="userSpaceOnUse" color-interpolation-filters="sRGB">
<feFlood flood-opacity="0" result="BackgroundImageFix"/>
<feColorMatrix in="SourceAlpha" type="matrix" values="0 0 0 0 0 0 0 0 0 0 0 0 0 0 0 0 0 0 127 0" result="hardAlpha"/>
<feOffset dx="2" dy="2"/>
<feGaussianBlur stdDeviation="15"/>
<feColorMatrix type="matrix" values="0 0 0 0 0.121569 0 0 0 0 0.113725 0 0 0 0 0.0509804 0 0 0 0.05 0"/>
<feBlend mode="normal" in2="BackgroundImageFix" result="effect1_dropShadow_239_13464"/>
<feBlend mode="normal" in="SourceGraphic" in2="effect1_dropShadow_239_13464" result="shape"/>
</filter>
<clipPath id="clip0_239_13464">
<rect width="23" height="23" fill="white" transform="translate(76 125)"/>
</clipPath>
<clipPath id="clip1_239_13464">
<rect width="23" height="23" fill="white" transform="translate(109 125)"/>
</clipPath>
<clipPath id="clip2_239_13464">
<rect width="23" height="23" fill="white" transform="translate(142 125)"/>
</clipPath>
</defs>
</svg>
