<svg width="64" height="38" viewBox="0 0 64 38" fill="none" xmlns="http://www.w3.org/2000/svg">
<path d="M2.4 37.28C1.76 37.28 1.28 37.12 0.96 36.8C0.64 36.3733 0.586667 35.7867 0.8 35.04L12.48 1.59999C12.8 0.533325 13.4933 -7.62939e-06 14.56 -7.62939e-06H31.04C32.4267 -7.62939e-06 32.96 0.693326 32.64 2.07999L25.92 35.52C25.7067 36.6933 25.0133 37.28 23.84 37.28H2.4ZM32.96 37.28C32.32 37.28 31.84 37.12 31.52 36.8C31.3067 36.3733 31.3067 35.7867 31.52 35.04L43.04 1.59999C43.36 0.533325 44.0533 -7.62939e-06 45.12 -7.62939e-06H61.6C62.9867 -7.62939e-06 63.52 0.693326 63.2 2.07999L56.8 35.52C56.6933 36.6933 56 37.28 54.72 37.28H32.96Z" fill="#FFD32B"/>
</svg>
