<svg width="16" height="18" viewBox="0 0 16 18" fill="none" xmlns="http://www.w3.org/2000/svg">
<path d="M12.375 3.625C11.5938 2.875 10.375 2.875 9.59375 3.625L3.84375 9.375C2.53125 10.6875 2.53125 12.8438 3.84375 14.1562C5.15625 15.4688 7.3125 15.4688 8.625 14.1562L13.375 9.40625C13.7188 9.0625 14.25 9.0625 14.5938 9.40625C14.9375 9.75 14.9375 10.2812 14.5938 10.625L9.84375 15.375C7.84375 17.375 4.625 17.375 2.625 15.375C0.625 13.375 0.625 10.1562 2.625 8.15625L8.375 2.40625C9.8125 0.9375 12.1562 0.9375 13.5938 2.40625C15.0625 3.84375 15.0625 6.1875 13.5938 7.625L8.09375 13.125C7.21875 14.0312 5.75 14.0312 4.875 13.125C3.96875 12.25 3.96875 10.7812 4.875 9.90625L9.375 5.40625C9.71875 5.0625 10.25 5.0625 10.5938 5.40625C10.9375 5.75 10.9375 6.28125 10.5938 6.625L6.09375 11.125C5.90625 11.3438 5.90625 11.6875 6.09375 11.9062C6.3125 12.0938 6.65625 12.0938 6.875 11.9062L12.375 6.40625C13.125 5.625 13.125 4.40625 12.375 3.625Z" fill="white"/>
</svg>
