<svg width="28" height="32" viewBox="0 0 28 32" fill="none" xmlns="http://www.w3.org/2000/svg">
<path d="M10 2V4H18V2C18 0.9375 18.875 0 20 0C21.0625 0 22 0.9375 22 2V4H25C26.625 4 28 5.375 28 7V10H0V7C0 5.375 1.3125 4 3 4H6V2C6 0.9375 6.875 0 8 0C9.0625 0 10 0.9375 10 2ZM0 12H28V29C28 30.6875 26.625 32 25 32H3C1.3125 32 0 30.6875 0 29V12ZM20.5 19.0625C21.125 18.5 21.125 17.5625 20.5 16.9375C19.9375 16.375 19 16.375 18.4375 16.9375L12.5 22.9375L9.5 19.9375C8.9375 19.375 8 19.375 7.4375 19.9375C6.8125 20.5625 6.8125 21.5 7.4375 22.0625L11.4375 26.0625C12 26.6875 12.9375 26.6875 13.5 26.0625L20.5 19.0625Z" fill="#29281E"/>
</svg>
